<svg width="550" height="453" viewBox="0 0 550 453" fill="none" xmlns="http://www.w3.org/2000/svg">
    <g id="Group 3" clip-path="url(#clip0_2041_22864)">
    <g id="500">
    <g id="Group 19">
    <g id="Group 27">
    <g id="Group 61 Copy">
    <g id="Group">
    <path id="Path" opacity="0.201893" fill-rule="evenodd" clip-rule="evenodd" d="M493.394 192.56C492.997 197.514 489.69 202.355 483.802 206.911C478.377 211.182 532.259 215.226 522.932 218.984H59.6163C52.7363 215.055 107.716 210.271 102.754 204.291C100.968 202.184 99.3141 199.963 97.8587 197.685C55.3877 131.168 156.339 -6.05704 190.276 0.207403C205.888 3.05488 196.627 32.0991 222.295 46.2226C270.786 72.875 363.6 1.85894 390.988 23.215C405.608 34.6619 381.131 56.7013 390.26 90.4724C405.74 147.878 495.511 165.281 493.394 192.56Z" fill="url(#paint0_linear_2041_22864)"/>
    </g>
    </g>
    </g>
    <path id="Path_2" opacity="0.42" fill-rule="evenodd" clip-rule="evenodd" d="M533.363 216.804C533.363 217.283 533.15 217.709 532.831 218.029C532.511 218.348 532.032 218.508 531.499 218.508H18.364C17.3521 218.508 16.5 217.762 16.5 216.804C16.5 216.324 16.713 215.898 17.0326 215.579C17.3521 215.259 17.8315 215.099 18.364 215.099H531.499C532.511 215.099 533.363 215.845 533.363 216.804Z" fill="#1B91FB"/>
    </g>
    <g id="Group 26">
    <g id="Path 24" filter="url(#filter0_d_2041_22864)">
    <path fill-rule="evenodd" clip-rule="evenodd" d="M221.085 112.698C220.759 134.453 237.825 152.507 259.564 153.405V153.405C282.065 154.335 300.928 136.575 301.354 114.058L301.739 93.7199C302.159 71.5033 284.467 53.1638 262.25 52.7853V52.7853C240.03 52.4067 221.722 70.1375 221.389 92.3586L221.085 112.698Z" fill="white"/>
    </g>
    <ellipse id="Oval" cx="260.015" cy="103.596" rx="23.3942" ry="23.3986" fill="white" stroke="#C4DCF7" stroke-width="1.73291"/>
    <rect id="Rectangle" x="250.484" y="92.3301" width="2.59936" height="12.1326" rx="1.29968" fill="#24244E"/>
    <rect id="Rectangle Copy 8" x="267.813" y="92.3301" width="2.59936" height="12.1326" rx="1.29968" fill="#24244E"/>
    <path id="Path 26" fill-rule="evenodd" clip-rule="evenodd" d="M255.494 119.377C255.494 119.474 255.572 119.553 255.669 119.553H262.989C263.086 119.553 263.164 119.474 263.164 119.377V114.076C263.164 111.958 261.447 110.24 259.329 110.24V110.24C257.211 110.24 255.494 111.958 255.494 114.076V119.377Z" fill="#24244E"/>
    </g>
    <g id="Group 27_2">
    <g id="Group 25">
    <g id="Group 24">
    <path id="Path 33" fill-rule="evenodd" clip-rule="evenodd" d="M222.971 205.54L222.993 204.924L221.919 205.39L222.371 204.555L220.711 204.96L221.486 203.742L219.81 204.929L220.763 203.456L219.35 203.668L220.297 202.845L218.978 203.273L219.403 202.145L217.672 202.301L218.73 201.253L217.88 201.463L218.175 201.006L216.989 201.432L217.523 200.36L215.736 201.149L217.053 199.598L215.863 200.183C215.863 200.183 216.582 199.386 216.658 199.196C220.106 195.2 250.614 193.745 250.614 193.745C250.614 193.745 323.725 196.563 335.854 196.721C347.983 196.879 352.098 192.541 352.098 192.541C352.098 192.541 352.547 194.199 352.725 194.894C352.935 195.717 353.146 196.481 353.301 197.065C353.38 197.366 353.447 197.555 353.505 197.796C353.879 199.362 354.899 201.632 354.899 201.632C354.899 201.632 349.168 207.625 329.039 207.237C308.911 206.849 239.404 199.126 223.694 204.948" fill="#2B4584"/>
    <path id="Path 32" d="M351.361 194.685C351.361 194.685 351.529 195.329 351.608 195.616C351.72 196.028 351.931 196.791 351.931 196.791C348.018 199.31 342.518 199.973 334.463 199.669L330.318 199.488L326.657 199.339L322.886 199.196L319.006 199.061L315.016 198.932L310.917 198.81L306.707 198.695L260.88 197.095L250.97 196.745L247.145 196.946L243.345 197.161L239.283 197.405L238.232 197.475L237.191 197.552L236.159 197.636L235.14 197.725L234.134 197.821L233.142 197.923L232.166 198.032L231.206 198.146L230.265 198.266L229.343 198.393C229.191 198.415 229.04 198.436 228.889 198.459L227.999 198.594C227.852 198.617 227.707 198.641 227.562 198.664L226.706 198.809C226.565 198.833 226.426 198.858 226.287 198.883L225.468 199.036L224.675 199.195C224.286 199.276 223.907 199.36 223.539 199.445L222.818 199.618C222.7 199.648 222.584 199.677 222.469 199.707L221.794 199.889C221.685 199.92 221.576 199.951 221.47 199.982L220.845 200.173C219.427 200.624 220.176 200.313 219.397 200.852L219.235 200.968L218.036 199.368C219.534 198.245 220.238 198.127 223.557 197.385L224.368 197.21C224.505 197.182 224.643 197.153 224.783 197.125L225.633 196.961C225.777 196.935 225.922 196.908 226.068 196.882L226.956 196.728C227.106 196.703 227.257 196.678 227.409 196.654L228.332 196.511L229.276 196.374L230.242 196.244L231.228 196.121C231.394 196.101 231.56 196.082 231.728 196.062L232.741 195.949L233.771 195.843L234.817 195.743L235.877 195.65L236.952 195.564L238.039 195.484L239.137 195.41L243.43 195.153L248.061 194.895L250.956 194.747L306.768 196.696L310.98 196.811L316.426 196.976L320.383 197.107L322.961 197.198L326.736 197.34L330.403 197.49L333.961 197.646C341.745 198.001 347.449 197.054 351.059 194.86L351.361 194.685Z" fill="#B6CBFF"/>
    </g>
    <path id="Path 32 Copy" fill-rule="evenodd" clip-rule="evenodd" d="M409.499 167.962L433.271 161.057C435.052 160.54 436.079 158.679 435.568 156.896V156.896C435.052 155.099 433.17 154.066 431.377 154.597L407.862 161.552L409.499 167.962Z" fill="#24244E"/>
    <path id="Path 27" fill-rule="evenodd" clip-rule="evenodd" d="M352.874 200.288C354.152 205.032 358.998 207.874 363.762 206.674L373.513 204.218L366.97 180.174L357.268 183.13C352.622 184.545 349.937 189.392 351.201 194.081L352.874 200.288Z" fill="#272B56"/>
    <path id="Path 28" fill-rule="evenodd" clip-rule="evenodd" d="M373.513 204.218C373.513 204.218 387.637 202.718 392.258 206.003C395.597 208.377 398.429 212.109 399.743 213.997C400.228 214.693 401.082 215.052 401.911 214.87L425.121 209.773C426.242 209.526 426.927 208.389 426.619 207.283L411.944 154.508C411.654 153.467 410.591 152.844 409.541 153.101L390.648 157.726C390.648 157.726 385.662 160.147 384.81 166.597C383.958 173.047 370.779 179.158 366.97 180.174C366.94 180.482 373.513 204.218 373.513 204.218Z" fill="#354592"/>
    <path id="Path 29" fill-rule="evenodd" clip-rule="evenodd" d="M395.344 160.357C395.864 159.88 396.659 160.147 396.839 160.83L407.315 200.384C407.508 201.115 406.866 201.761 406.152 201.515C402.092 200.119 391.443 195.376 388.334 183.291C385.204 171.126 392.459 163.013 395.344 160.357Z" fill="#576EC8"/>
    <path id="Path 30" fill-rule="evenodd" clip-rule="evenodd" d="M400.015 213.532C400.015 213.532 396.455 196.63 378.949 196.019C373.814 196.482 372.01 198.046 372.01 198.046L373.513 204.218C373.513 204.218 385.211 203.179 389.783 204.786C394.355 206.393 400.015 213.532 400.015 213.532Z" fill="#2D397C"/>
    <path id="Path 31" fill-rule="evenodd" clip-rule="evenodd" d="M422.868 206.57C423.07 207.297 422.632 208.048 421.9 208.232L406.891 211.984C406.157 212.168 405.398 211.796 405.092 211.105V211.105C404.695 210.207 405.22 209.17 406.178 208.958L421.463 205.579C422.059 205.447 422.655 205.805 422.819 206.394L422.868 206.57Z" fill="#576EC8"/>
    <path id="Path 32 Copy 2" fill-rule="evenodd" clip-rule="evenodd" d="M422.919 194.027L448.286 186.423C449.994 185.911 450.953 184.102 450.419 182.402V182.402C449.894 180.726 448.115 179.788 446.436 180.3L421.224 187.986L422.919 194.027Z" fill="#24244E"/>
    </g>
    <g id="Group 24_2">
    <path id="Path 33_2" fill-rule="evenodd" clip-rule="evenodd" d="M184.962 203.613L184.941 204.229L186.014 203.763L185.562 204.598L187.223 204.192L186.447 205.41L188.124 204.224L187.17 205.697L188.583 205.485L187.637 206.308L188.955 205.88L188.53 207.008L190.261 206.852L189.204 207.899L190.053 207.69L189.759 208.147L190.944 207.721L190.41 208.793L192.197 208.004L190.88 209.555L192.071 208.97C192.071 208.97 191.352 209.767 191.276 209.957C187.827 213.953 157.319 215.408 157.319 215.408C157.319 215.408 84.2084 212.59 72.0794 212.431C64.9203 212.338 59.8551 213.42 56.884 215.677C56.4994 215.969 55.0019 216.647 54.6325 216.635C49.4472 216.471 50.3734 212.532 53.0343 207.521C53.0343 207.521 58.7656 201.527 78.894 201.916C99.0223 202.304 168.53 210.026 184.24 204.205" fill="#2B4584"/>
    <path id="Path 32_2" d="M56.5724 214.468C56.5724 214.468 55.8179 214.415 55.6295 213.728C55.5166 213.316 56.0025 212.362 56.0025 212.362C59.9151 209.843 65.4156 209.18 73.4708 209.484L77.6158 209.665L81.277 209.814L85.0475 209.956L88.9276 210.092L92.9173 210.221L97.0169 210.342L101.226 210.457L147.053 212.058L156.964 212.407L160.789 212.207L164.589 211.991L168.651 211.748L169.701 211.678L170.743 211.601L171.774 211.517L172.793 211.428L173.8 211.332L174.792 211.23L175.768 211.121L176.727 211.007L177.669 210.886L178.591 210.76C178.743 210.738 178.894 210.716 179.044 210.694L179.935 210.559C180.081 210.536 180.227 210.512 180.371 210.489L181.228 210.344C181.368 210.32 181.508 210.295 181.647 210.27L182.466 210.117L183.258 209.957C183.648 209.876 184.027 209.793 184.395 209.708L185.116 209.534C185.233 209.505 185.35 209.475 185.465 209.445L186.139 209.263C186.249 209.233 186.357 209.202 186.464 209.17L187.089 208.98C188.507 208.529 187.757 208.84 188.537 208.301L188.698 208.184L189.897 209.785C188.399 210.908 187.695 211.026 184.376 211.768L183.566 211.943C183.429 211.971 183.29 211.999 183.151 212.027L182.3 212.192C182.156 212.218 182.012 212.245 181.866 212.271L180.978 212.425C180.828 212.45 180.677 212.474 180.525 212.499L179.602 212.642L178.657 212.779L177.691 212.909L176.706 213.032C176.54 213.052 176.373 213.071 176.206 213.091L175.193 213.203L174.163 213.31L173.117 213.409L172.056 213.503L170.982 213.589L169.895 213.669L168.796 213.743L164.504 214L159.873 214.258L156.978 214.406L101.165 212.456L96.9537 212.341L91.5078 212.177L87.5505 212.046L84.9729 211.955L81.1972 211.812L77.5305 211.663L73.9728 211.507C66.1882 211.152 60.4847 212.099 56.8745 214.293L56.5724 214.468Z" fill="#B6CBFF"/>
    </g>
    <g id="Group 21">
    <rect id="Rectangle_2" x="189.875" y="196.441" width="1" height="3" transform="rotate(2 189.875 196.441)" fill="#233C73"/>
    <rect id="Rectangle Copy 9" x="188.841" y="197.406" width="3" height="1" transform="rotate(2 188.841 197.406)" fill="#233C73"/>
    </g>
    <g id="Group 21_2">
    <rect id="Rectangle_3" x="202.322" y="183.867" width="1" height="3" transform="rotate(2 202.322 183.867)" fill="#233C73"/>
    <rect id="Rectangle Copy 9_2" x="201.288" y="184.832" width="3" height="1" transform="rotate(2 201.288 184.832)" fill="#233C73"/>
    </g>
    <g id="Group 22">
    <path id="Line 2" d="M212.17 202.723L212.135 203.722" stroke="#233C73" stroke-linecap="square"/>
    <path id="Line 3" d="M212.065 205.721L212.03 206.72" stroke="#233C73" stroke-linecap="square"/>
    <path id="Line 4" d="M213.099 204.756L214.099 204.791" stroke="#233C73" stroke-linecap="square"/>
    <path id="Line 4 Copy" d="M210.101 204.652L211.101 204.687" stroke="#233C73" stroke-linecap="square"/>
    </g>
    <g id="Group 23">
    <path id="Line 2 Copy" d="M192.81 184.036L192.74 186.034" stroke="#233C73" stroke-linecap="square"/>
    <path id="Line 3 Copy" d="M192.67 188.033L192.6 190.032" stroke="#233C73" stroke-linecap="square"/>
    <path id="Line 4 Copy 2" d="M193.705 187.069L195.704 187.138" stroke="#233C73" stroke-linecap="square"/>
    <path id="Line 4 Copy 3" d="M189.707 186.929L191.706 186.999" stroke="#233C73" stroke-linecap="square"/>
    </g>
    <circle id="Oval_2" cx="203.86" cy="211.438" r="2" transform="rotate(2 203.86 211.438)" fill="white" stroke="#233C73"/>
    <circle id="Oval Copy" cx="195.043" cy="205.022" r="2" transform="rotate(2 195.043 205.022)" fill="white" stroke="#233C73"/>
    <circle id="Oval Copy 2" cx="203.21" cy="201.409" r="1" transform="rotate(2 203.21 201.409)" fill="white" stroke="#233C73"/>
    <circle id="Oval Copy 3" cx="202.008" cy="192.862" r="1.5" transform="rotate(2 202.008 192.862)" fill="white" stroke="#233C73"/>
    </g>
    </g>
    <path id="Title Copy" d="M148.031 283.686V306.436H145.062V283.686H148.031ZM155.344 283.686V286.155H137.766V283.686H155.344ZM161.172 282.436V306.436H158.281V282.436H161.172ZM160.484 297.342L159.281 297.295C159.292 296.139 159.464 295.071 159.797 294.092C160.13 293.102 160.599 292.243 161.203 291.514C161.807 290.785 162.526 290.222 163.359 289.826C164.203 289.42 165.135 289.217 166.156 289.217C166.99 289.217 167.74 289.332 168.406 289.561C169.073 289.78 169.641 290.134 170.109 290.623C170.589 291.113 170.953 291.748 171.203 292.53C171.453 293.3 171.578 294.243 171.578 295.358V306.436H168.672V295.326C168.672 294.441 168.542 293.733 168.281 293.201C168.021 292.66 167.641 292.269 167.141 292.03C166.641 291.78 166.026 291.655 165.297 291.655C164.578 291.655 163.922 291.806 163.328 292.108C162.745 292.41 162.24 292.826 161.812 293.358C161.396 293.889 161.068 294.498 160.828 295.186C160.599 295.863 160.484 296.582 160.484 297.342ZM179.047 289.53V306.436H176.141V289.53H179.047ZM175.922 285.045C175.922 284.576 176.062 284.181 176.344 283.858C176.635 283.535 177.062 283.373 177.625 283.373C178.177 283.373 178.599 283.535 178.891 283.858C179.193 284.181 179.344 284.576 179.344 285.045C179.344 285.493 179.193 285.878 178.891 286.201C178.599 286.514 178.177 286.67 177.625 286.67C177.062 286.67 176.635 286.514 176.344 286.201C176.062 285.878 175.922 285.493 175.922 285.045ZM193.531 301.951C193.531 301.535 193.438 301.149 193.25 300.795C193.073 300.431 192.703 300.102 192.141 299.811C191.589 299.509 190.755 299.248 189.641 299.03C188.703 298.832 187.854 298.597 187.094 298.326C186.344 298.056 185.703 297.727 185.172 297.342C184.651 296.957 184.25 296.503 183.969 295.983C183.688 295.462 183.547 294.852 183.547 294.155C183.547 293.488 183.693 292.858 183.984 292.264C184.286 291.67 184.708 291.144 185.25 290.686C185.802 290.227 186.464 289.868 187.234 289.608C188.005 289.347 188.865 289.217 189.812 289.217C191.167 289.217 192.323 289.457 193.281 289.936C194.24 290.415 194.974 291.056 195.484 291.858C195.995 292.649 196.25 293.53 196.25 294.498H193.359C193.359 294.03 193.219 293.576 192.938 293.139C192.667 292.691 192.266 292.321 191.734 292.03C191.214 291.738 190.573 291.592 189.812 291.592C189.01 291.592 188.359 291.717 187.859 291.967C187.37 292.207 187.01 292.514 186.781 292.889C186.562 293.264 186.453 293.66 186.453 294.076C186.453 294.389 186.505 294.67 186.609 294.92C186.724 295.16 186.922 295.384 187.203 295.592C187.484 295.79 187.88 295.977 188.391 296.155C188.901 296.332 189.552 296.509 190.344 296.686C191.729 296.998 192.87 297.373 193.766 297.811C194.661 298.248 195.328 298.785 195.766 299.42C196.203 300.056 196.422 300.826 196.422 301.733C196.422 302.472 196.266 303.149 195.953 303.764C195.651 304.378 195.208 304.91 194.625 305.358C194.052 305.795 193.365 306.139 192.562 306.389C191.771 306.628 190.88 306.748 189.891 306.748C188.401 306.748 187.141 306.483 186.109 305.951C185.078 305.42 184.297 304.733 183.766 303.889C183.234 303.045 182.969 302.155 182.969 301.217H185.875C185.917 302.009 186.146 302.639 186.562 303.108C186.979 303.566 187.49 303.894 188.094 304.092C188.698 304.28 189.297 304.373 189.891 304.373C190.682 304.373 191.344 304.269 191.875 304.061C192.417 303.852 192.828 303.566 193.109 303.201C193.391 302.837 193.531 302.42 193.531 301.951ZM211.297 289.53V306.436H208.391V289.53H211.297ZM208.172 285.045C208.172 284.576 208.312 284.181 208.594 283.858C208.885 283.535 209.312 283.373 209.875 283.373C210.427 283.373 210.849 283.535 211.141 283.858C211.443 284.181 211.594 284.576 211.594 285.045C211.594 285.493 211.443 285.878 211.141 286.201C210.849 286.514 210.427 286.67 209.875 286.67C209.312 286.67 208.885 286.514 208.594 286.201C208.312 285.878 208.172 285.493 208.172 285.045ZM225.781 301.951C225.781 301.535 225.688 301.149 225.5 300.795C225.323 300.431 224.953 300.102 224.391 299.811C223.839 299.509 223.005 299.248 221.891 299.03C220.953 298.832 220.104 298.597 219.344 298.326C218.594 298.056 217.953 297.727 217.422 297.342C216.901 296.957 216.5 296.503 216.219 295.983C215.938 295.462 215.797 294.852 215.797 294.155C215.797 293.488 215.943 292.858 216.234 292.264C216.536 291.67 216.958 291.144 217.5 290.686C218.052 290.227 218.714 289.868 219.484 289.608C220.255 289.347 221.115 289.217 222.062 289.217C223.417 289.217 224.573 289.457 225.531 289.936C226.49 290.415 227.224 291.056 227.734 291.858C228.245 292.649 228.5 293.53 228.5 294.498H225.609C225.609 294.03 225.469 293.576 225.188 293.139C224.917 292.691 224.516 292.321 223.984 292.03C223.464 291.738 222.823 291.592 222.062 291.592C221.26 291.592 220.609 291.717 220.109 291.967C219.62 292.207 219.26 292.514 219.031 292.889C218.812 293.264 218.703 293.66 218.703 294.076C218.703 294.389 218.755 294.67 218.859 294.92C218.974 295.16 219.172 295.384 219.453 295.592C219.734 295.79 220.13 295.977 220.641 296.155C221.151 296.332 221.802 296.509 222.594 296.686C223.979 296.998 225.12 297.373 226.016 297.811C226.911 298.248 227.578 298.785 228.016 299.42C228.453 300.056 228.672 300.826 228.672 301.733C228.672 302.472 228.516 303.149 228.203 303.764C227.901 304.378 227.458 304.91 226.875 305.358C226.302 305.795 225.615 306.139 224.812 306.389C224.021 306.628 223.13 306.748 222.141 306.748C220.651 306.748 219.391 306.483 218.359 305.951C217.328 305.42 216.547 304.733 216.016 303.889C215.484 303.045 215.219 302.155 215.219 301.217H218.125C218.167 302.009 218.396 302.639 218.812 303.108C219.229 303.566 219.74 303.894 220.344 304.092C220.948 304.28 221.547 304.373 222.141 304.373C222.932 304.373 223.594 304.269 224.125 304.061C224.667 303.852 225.078 303.566 225.359 303.201C225.641 302.837 225.781 302.42 225.781 301.951ZM250.75 302.53V289.53H253.656V306.436H250.891L250.75 302.53ZM251.297 298.967L252.5 298.936C252.5 300.061 252.38 301.102 252.141 302.061C251.911 303.009 251.536 303.832 251.016 304.53C250.495 305.227 249.812 305.774 248.969 306.17C248.125 306.556 247.099 306.748 245.891 306.748C245.068 306.748 244.312 306.628 243.625 306.389C242.948 306.149 242.365 305.78 241.875 305.28C241.385 304.78 241.005 304.128 240.734 303.326C240.474 302.524 240.344 301.561 240.344 300.436V289.53H243.234V300.467C243.234 301.227 243.318 301.858 243.484 302.358C243.661 302.847 243.896 303.238 244.188 303.53C244.49 303.811 244.823 304.009 245.188 304.123C245.562 304.238 245.948 304.295 246.344 304.295C247.573 304.295 248.547 304.061 249.266 303.592C249.984 303.113 250.5 302.472 250.812 301.67C251.135 300.858 251.297 299.957 251.297 298.967ZM260.953 293.139V306.436H258.062V289.53H260.797L260.953 293.139ZM260.266 297.342L259.062 297.295C259.073 296.139 259.245 295.071 259.578 294.092C259.911 293.102 260.38 292.243 260.984 291.514C261.589 290.785 262.307 290.222 263.141 289.826C263.984 289.42 264.917 289.217 265.938 289.217C266.771 289.217 267.521 289.332 268.188 289.561C268.854 289.78 269.422 290.134 269.891 290.623C270.37 291.113 270.734 291.748 270.984 292.53C271.234 293.3 271.359 294.243 271.359 295.358V306.436H268.453V295.326C268.453 294.441 268.323 293.733 268.062 293.201C267.802 292.66 267.422 292.269 266.922 292.03C266.422 291.78 265.807 291.655 265.078 291.655C264.359 291.655 263.703 291.806 263.109 292.108C262.526 292.41 262.021 292.826 261.594 293.358C261.177 293.889 260.849 294.498 260.609 295.186C260.38 295.863 260.266 296.582 260.266 297.342ZM282.766 306.748C281.589 306.748 280.521 306.55 279.562 306.155C278.615 305.748 277.797 305.181 277.109 304.451C276.432 303.722 275.911 302.858 275.547 301.858C275.182 300.858 275 299.764 275 298.576V297.92C275 296.545 275.203 295.321 275.609 294.248C276.016 293.165 276.568 292.248 277.266 291.498C277.964 290.748 278.755 290.181 279.641 289.795C280.526 289.41 281.443 289.217 282.391 289.217C283.599 289.217 284.641 289.425 285.516 289.842C286.401 290.259 287.125 290.842 287.688 291.592C288.25 292.332 288.667 293.207 288.938 294.217C289.208 295.217 289.344 296.311 289.344 297.498V298.795H276.719V296.436H286.453V296.217C286.411 295.467 286.255 294.738 285.984 294.03C285.724 293.321 285.307 292.738 284.734 292.28C284.161 291.821 283.38 291.592 282.391 291.592C281.734 291.592 281.13 291.733 280.578 292.014C280.026 292.285 279.552 292.691 279.156 293.233C278.76 293.774 278.453 294.436 278.234 295.217C278.016 295.998 277.906 296.899 277.906 297.92V298.576C277.906 299.378 278.016 300.134 278.234 300.842C278.464 301.54 278.792 302.155 279.219 302.686C279.656 303.217 280.182 303.634 280.797 303.936C281.422 304.238 282.13 304.389 282.922 304.389C283.943 304.389 284.807 304.181 285.516 303.764C286.224 303.347 286.844 302.79 287.375 302.092L289.125 303.483C288.76 304.035 288.297 304.561 287.734 305.061C287.172 305.561 286.479 305.967 285.656 306.28C284.844 306.592 283.88 306.748 282.766 306.748ZM294.672 289.53L298.375 295.686L302.125 289.53H305.516L299.984 297.873L305.688 306.436H302.344L298.438 300.092L294.531 306.436H291.172L296.859 297.873L291.344 289.53H294.672ZM311.484 292.78V312.936H308.578V289.53H311.234L311.484 292.78ZM322.875 297.842V298.17C322.875 299.399 322.729 300.54 322.438 301.592C322.146 302.634 321.719 303.54 321.156 304.311C320.604 305.082 319.922 305.681 319.109 306.108C318.297 306.535 317.365 306.748 316.312 306.748C315.24 306.748 314.292 306.571 313.469 306.217C312.646 305.863 311.948 305.347 311.375 304.67C310.802 303.993 310.344 303.181 310 302.233C309.667 301.285 309.438 300.217 309.312 299.03V297.28C309.438 296.03 309.672 294.91 310.016 293.92C310.359 292.931 310.812 292.087 311.375 291.389C311.948 290.681 312.641 290.144 313.453 289.78C314.266 289.405 315.203 289.217 316.266 289.217C317.328 289.217 318.271 289.425 319.094 289.842C319.917 290.248 320.609 290.832 321.172 291.592C321.734 292.352 322.156 293.264 322.438 294.326C322.729 295.378 322.875 296.55 322.875 297.842ZM319.969 298.17V297.842C319.969 296.998 319.88 296.207 319.703 295.467C319.526 294.717 319.25 294.061 318.875 293.498C318.51 292.925 318.042 292.477 317.469 292.155C316.896 291.821 316.214 291.655 315.422 291.655C314.693 291.655 314.057 291.78 313.516 292.03C312.984 292.28 312.531 292.618 312.156 293.045C311.781 293.462 311.474 293.941 311.234 294.483C311.005 295.014 310.833 295.566 310.719 296.139V300.186C310.927 300.915 311.219 301.602 311.594 302.248C311.969 302.884 312.469 303.399 313.094 303.795C313.719 304.181 314.505 304.373 315.453 304.373C316.234 304.373 316.906 304.212 317.469 303.889C318.042 303.556 318.51 303.102 318.875 302.53C319.25 301.957 319.526 301.3 319.703 300.561C319.88 299.811 319.969 299.014 319.969 298.17ZM333.578 306.748C332.401 306.748 331.333 306.55 330.375 306.155C329.427 305.748 328.609 305.181 327.922 304.451C327.245 303.722 326.724 302.858 326.359 301.858C325.995 300.858 325.812 299.764 325.812 298.576V297.92C325.812 296.545 326.016 295.321 326.422 294.248C326.828 293.165 327.38 292.248 328.078 291.498C328.776 290.748 329.568 290.181 330.453 289.795C331.339 289.41 332.255 289.217 333.203 289.217C334.411 289.217 335.453 289.425 336.328 289.842C337.214 290.259 337.938 290.842 338.5 291.592C339.062 292.332 339.479 293.207 339.75 294.217C340.021 295.217 340.156 296.311 340.156 297.498V298.795H327.531V296.436H337.266V296.217C337.224 295.467 337.068 294.738 336.797 294.03C336.536 293.321 336.12 292.738 335.547 292.28C334.974 291.821 334.193 291.592 333.203 291.592C332.547 291.592 331.943 291.733 331.391 292.014C330.839 292.285 330.365 292.691 329.969 293.233C329.573 293.774 329.266 294.436 329.047 295.217C328.828 295.998 328.719 296.899 328.719 297.92V298.576C328.719 299.378 328.828 300.134 329.047 300.842C329.276 301.54 329.604 302.155 330.031 302.686C330.469 303.217 330.995 303.634 331.609 303.936C332.234 304.238 332.943 304.389 333.734 304.389C334.755 304.389 335.62 304.181 336.328 303.764C337.036 303.347 337.656 302.79 338.188 302.092L339.938 303.483C339.573 304.035 339.109 304.561 338.547 305.061C337.984 305.561 337.292 305.967 336.469 306.28C335.656 306.592 334.693 306.748 333.578 306.748ZM350.297 304.373C350.984 304.373 351.62 304.233 352.203 303.951C352.786 303.67 353.266 303.285 353.641 302.795C354.016 302.295 354.229 301.727 354.281 301.092H357.031C356.979 302.092 356.641 303.024 356.016 303.889C355.401 304.743 354.594 305.436 353.594 305.967C352.594 306.488 351.495 306.748 350.297 306.748C349.026 306.748 347.917 306.524 346.969 306.076C346.031 305.628 345.25 305.014 344.625 304.233C344.01 303.451 343.547 302.556 343.234 301.545C342.932 300.524 342.781 299.446 342.781 298.311V297.655C342.781 296.519 342.932 295.446 343.234 294.436C343.547 293.415 344.01 292.514 344.625 291.733C345.25 290.951 346.031 290.337 346.969 289.889C347.917 289.441 349.026 289.217 350.297 289.217C351.62 289.217 352.776 289.488 353.766 290.03C354.755 290.561 355.531 291.29 356.094 292.217C356.667 293.134 356.979 294.175 357.031 295.342H354.281C354.229 294.644 354.031 294.014 353.688 293.451C353.354 292.889 352.896 292.441 352.312 292.108C351.74 291.764 351.068 291.592 350.297 291.592C349.411 291.592 348.667 291.769 348.062 292.123C347.469 292.467 346.995 292.936 346.641 293.53C346.297 294.113 346.047 294.764 345.891 295.483C345.745 296.191 345.672 296.915 345.672 297.655V298.311C345.672 299.05 345.745 299.78 345.891 300.498C346.036 301.217 346.281 301.868 346.625 302.451C346.979 303.035 347.453 303.503 348.047 303.858C348.651 304.201 349.401 304.373 350.297 304.373ZM367.359 289.53V291.748H358.219V289.53H367.359ZM361.312 285.42H364.203V302.248C364.203 302.821 364.292 303.253 364.469 303.545C364.646 303.837 364.875 304.03 365.156 304.123C365.438 304.217 365.74 304.264 366.062 304.264C366.302 304.264 366.552 304.243 366.812 304.201C367.083 304.149 367.286 304.108 367.422 304.076L367.438 306.436C367.208 306.509 366.906 306.576 366.531 306.639C366.167 306.712 365.724 306.748 365.203 306.748C364.495 306.748 363.844 306.608 363.25 306.326C362.656 306.045 362.182 305.576 361.828 304.92C361.484 304.253 361.312 303.358 361.312 302.233V285.42ZM377.766 306.748C376.589 306.748 375.521 306.55 374.562 306.155C373.615 305.748 372.797 305.181 372.109 304.451C371.432 303.722 370.911 302.858 370.547 301.858C370.182 300.858 370 299.764 370 298.576V297.92C370 296.545 370.203 295.321 370.609 294.248C371.016 293.165 371.568 292.248 372.266 291.498C372.964 290.748 373.755 290.181 374.641 289.795C375.526 289.41 376.443 289.217 377.391 289.217C378.599 289.217 379.641 289.425 380.516 289.842C381.401 290.259 382.125 290.842 382.688 291.592C383.25 292.332 383.667 293.207 383.938 294.217C384.208 295.217 384.344 296.311 384.344 297.498V298.795H371.719V296.436H381.453V296.217C381.411 295.467 381.255 294.738 380.984 294.03C380.724 293.321 380.307 292.738 379.734 292.28C379.161 291.821 378.38 291.592 377.391 291.592C376.734 291.592 376.13 291.733 375.578 292.014C375.026 292.285 374.552 292.691 374.156 293.233C373.76 293.774 373.453 294.436 373.234 295.217C373.016 295.998 372.906 296.899 372.906 297.92V298.576C372.906 299.378 373.016 300.134 373.234 300.842C373.464 301.54 373.792 302.155 374.219 302.686C374.656 303.217 375.182 303.634 375.797 303.936C376.422 304.238 377.13 304.389 377.922 304.389C378.943 304.389 379.807 304.181 380.516 303.764C381.224 303.347 381.844 302.79 382.375 302.092L384.125 303.483C383.76 304.035 383.297 304.561 382.734 305.061C382.172 305.561 381.479 305.967 380.656 306.28C379.844 306.592 378.88 306.748 377.766 306.748ZM398.375 303.155V282.436H401.281V306.436H398.625L398.375 303.155ZM387 298.17V297.842C387 296.55 387.156 295.378 387.469 294.326C387.792 293.264 388.245 292.352 388.828 291.592C389.422 290.832 390.125 290.248 390.938 289.842C391.76 289.425 392.677 289.217 393.688 289.217C394.75 289.217 395.677 289.405 396.469 289.78C397.271 290.144 397.948 290.681 398.5 291.389C399.062 292.087 399.505 292.931 399.828 293.92C400.151 294.91 400.375 296.03 400.5 297.28V298.717C400.385 299.957 400.161 301.071 399.828 302.061C399.505 303.05 399.062 303.894 398.5 304.592C397.948 305.29 397.271 305.826 396.469 306.201C395.667 306.566 394.729 306.748 393.656 306.748C392.667 306.748 391.76 306.535 390.938 306.108C390.125 305.681 389.422 305.082 388.828 304.311C388.245 303.54 387.792 302.634 387.469 301.592C387.156 300.54 387 299.399 387 298.17ZM389.906 297.842V298.17C389.906 299.014 389.99 299.806 390.156 300.545C390.333 301.285 390.604 301.936 390.969 302.498C391.333 303.061 391.797 303.503 392.359 303.826C392.922 304.139 393.594 304.295 394.375 304.295C395.333 304.295 396.12 304.092 396.734 303.686C397.359 303.28 397.859 302.743 398.234 302.076C398.609 301.41 398.901 300.686 399.109 299.905V296.139C398.984 295.566 398.802 295.014 398.562 294.483C398.333 293.941 398.031 293.462 397.656 293.045C397.292 292.618 396.839 292.28 396.297 292.03C395.766 291.78 395.135 291.655 394.406 291.655C393.615 291.655 392.932 291.821 392.359 292.155C391.797 292.477 391.333 292.925 390.969 293.498C390.604 294.061 390.333 294.717 390.156 295.467C389.99 296.207 389.906 296.998 389.906 297.842ZM405.828 304.905C405.828 304.415 405.979 304.003 406.281 303.67C406.594 303.326 407.042 303.155 407.625 303.155C408.208 303.155 408.651 303.326 408.953 303.67C409.266 304.003 409.422 304.415 409.422 304.905C409.422 305.384 409.266 305.79 408.953 306.123C408.651 306.457 408.208 306.623 407.625 306.623C407.042 306.623 406.594 306.457 406.281 306.123C405.979 305.79 405.828 305.384 405.828 304.905Z" fill="#2A333E"/>
    <path id="Title Copy 2" d="M9.56836 377.865H3.96289L3.93555 376.444H8.76172C9.74609 376.444 10.5846 376.302 11.2773 376.02C11.9701 375.737 12.4941 375.318 12.8496 374.762C13.2142 374.197 13.3965 373.504 13.3965 372.684C13.3965 371.845 13.2188 371.153 12.8633 370.606C12.5078 370.05 11.9746 369.64 11.2637 369.375C10.5527 369.111 9.65951 368.979 8.58398 368.979H4.40039V387.436H2.71875V367.53H8.58398C9.5957 367.53 10.5026 367.63 11.3047 367.83C12.1068 368.031 12.7904 368.345 13.3555 368.774C13.9206 369.202 14.349 369.744 14.6406 370.401C14.9414 371.048 15.0918 371.823 15.0918 372.725C15.0918 373.545 14.9095 374.288 14.5449 374.953C14.1803 375.61 13.6654 376.147 13 376.567C12.3438 376.977 11.5553 377.232 10.6348 377.332L9.56836 377.865ZM9.44531 387.436H3.42969L4.29102 386H9.44531C10.4297 386 11.2682 385.836 11.9609 385.508C12.6628 385.171 13.2005 384.692 13.5742 384.073C13.9479 383.453 14.1348 382.714 14.1348 381.858C14.1348 381.101 13.9707 380.422 13.6426 379.821C13.3145 379.219 12.8132 378.745 12.1387 378.399C11.4642 378.043 10.6074 377.865 9.56836 377.865H6.08203L6.10938 376.444H11.0449L11.3457 376.949C12.2389 377.041 13.0182 377.319 13.6836 377.783C14.3581 378.239 14.8776 378.818 15.2422 379.52C15.6159 380.222 15.8027 380.992 15.8027 381.83C15.8027 383.033 15.5339 384.054 14.9961 384.893C14.4674 385.722 13.7246 386.356 12.7676 386.793C11.8197 387.222 10.7122 387.436 9.44531 387.436ZM28.9824 384.018V372.643H30.623V387.436H29.0508L28.9824 384.018ZM29.2832 381.283L30.1309 381.256C30.1309 382.186 30.0215 383.043 29.8027 383.826C29.584 384.61 29.2422 385.294 28.7773 385.877C28.3125 386.461 27.7109 386.912 26.9727 387.231C26.2344 387.55 25.3457 387.709 24.3066 387.709C23.5866 387.709 22.9258 387.609 22.3242 387.408C21.7318 387.199 21.2214 386.871 20.793 386.424C20.3646 385.977 20.0319 385.399 19.7949 384.688C19.5671 383.977 19.4531 383.115 19.4531 382.104V372.643H21.0801V382.131C21.0801 382.924 21.1667 383.585 21.3398 384.114C21.5221 384.642 21.7682 385.066 22.0781 385.385C22.3971 385.704 22.7617 385.932 23.1719 386.069C23.582 386.205 24.0241 386.274 24.498 386.274C25.7012 386.274 26.6491 386.041 27.3418 385.576C28.0436 385.112 28.5404 384.501 28.832 383.744C29.1328 382.979 29.2832 382.158 29.2832 381.283ZM40.4941 372.643V373.983H33.084V372.643H40.4941ZM35.8047 368.842H37.4316V383.84C37.4316 384.524 37.5228 385.039 37.7051 385.385C37.8874 385.731 38.1243 385.964 38.416 386.082C38.7077 386.201 39.0221 386.26 39.3594 386.26C39.6055 386.26 39.8424 386.246 40.0703 386.219C40.2982 386.183 40.5033 386.146 40.6855 386.11L40.7539 387.49C40.5534 387.554 40.2936 387.604 39.9746 387.641C39.6556 387.686 39.3366 387.709 39.0176 387.709C38.3887 387.709 37.8327 387.595 37.3496 387.367C36.8665 387.13 36.4883 386.729 36.2148 386.164C35.9414 385.59 35.8047 384.811 35.8047 383.826V368.842ZM45.498 384.852V386.766C45.498 387.604 45.3249 388.411 44.9785 389.186C44.6322 389.97 44.1628 390.63 43.5703 391.168L42.6133 390.457C42.8958 390.074 43.1328 389.692 43.3242 389.309C43.5156 388.935 43.6569 388.543 43.748 388.133C43.8483 387.723 43.8984 387.281 43.8984 386.807V384.852H45.498ZM60.25 383.977L63.8184 372.643H64.9668L64.2832 375.692L60.5508 387.436H59.4023L60.25 383.977ZM56.5449 372.643L59.6758 384.045L60.3457 387.436H59.1562L54.8633 372.643H56.5449ZM69.4102 384.004L72.459 372.643H74.1406L69.8477 387.436H68.6719L69.4102 384.004ZM65.1992 372.643L68.7129 383.881L69.6016 387.436H68.4531L64.6387 375.678L63.9961 372.643H65.1992ZM83 387.709C82.0339 387.709 81.1452 387.531 80.334 387.176C79.5319 386.821 78.8301 386.319 78.2285 385.672C77.6361 385.025 77.1758 384.259 76.8477 383.375C76.5286 382.482 76.3691 381.507 76.3691 380.449V379.862C76.3691 378.722 76.5378 377.692 76.875 376.772C77.2122 375.851 77.6771 375.063 78.2695 374.406C78.862 373.75 79.5365 373.249 80.293 372.903C81.0586 372.547 81.8607 372.369 82.6992 372.369C83.638 372.369 84.472 372.538 85.2012 372.875C85.9303 373.203 86.541 373.673 87.0332 374.283C87.5345 374.885 87.9128 375.601 88.168 376.43C88.4232 377.25 88.5508 378.157 88.5508 379.151V380.149H77.3535V378.754H86.9238V378.563C86.9056 377.733 86.737 376.959 86.418 376.239C86.1081 375.509 85.6432 374.917 85.0234 374.461C84.4036 374.005 83.6289 373.778 82.6992 373.778C82.0065 373.778 81.3685 373.923 80.7852 374.215C80.2109 374.507 79.7142 374.926 79.2949 375.473C78.8848 376.011 78.5658 376.653 78.3379 377.401C78.1191 378.139 78.0098 378.959 78.0098 379.862V380.449C78.0098 381.27 78.1283 382.035 78.3652 382.746C78.6113 383.448 78.9577 384.068 79.4043 384.606C79.86 385.143 80.3978 385.563 81.0176 385.864C81.6374 386.164 82.321 386.315 83.0684 386.315C83.9434 386.315 84.7181 386.155 85.3926 385.836C86.0671 385.508 86.6732 384.993 87.2109 384.291L88.2363 385.084C87.9173 385.558 87.5163 385.996 87.0332 386.397C86.5592 386.798 85.9896 387.117 85.3242 387.354C84.6589 387.591 83.8841 387.709 83 387.709ZM107.609 384.783V377.155C107.609 376.453 107.464 375.847 107.172 375.336C106.88 374.826 106.452 374.434 105.887 374.16C105.322 373.887 104.624 373.75 103.795 373.75C103.029 373.75 102.346 373.887 101.744 374.16C101.152 374.425 100.682 374.785 100.336 375.24C99.9987 375.687 99.8301 376.184 99.8301 376.731L98.1895 376.717C98.1895 376.161 98.3262 375.623 98.5996 375.104C98.873 374.584 99.2604 374.119 99.7617 373.709C100.263 373.299 100.86 372.976 101.553 372.739C102.255 372.492 103.025 372.369 103.863 372.369C104.921 372.369 105.85 372.547 106.652 372.903C107.464 373.258 108.097 373.791 108.553 374.502C109.008 375.213 109.236 376.106 109.236 377.182V384.332C109.236 384.843 109.273 385.371 109.346 385.918C109.428 386.465 109.542 386.916 109.688 387.272V387.436H107.951C107.842 387.108 107.755 386.698 107.691 386.205C107.637 385.704 107.609 385.23 107.609 384.783ZM107.992 378.823L108.02 380.08H104.807C103.968 380.08 103.216 380.158 102.551 380.313C101.895 380.459 101.339 380.677 100.883 380.969C100.427 381.252 100.076 381.593 99.8301 381.994C99.5931 382.395 99.4746 382.851 99.4746 383.362C99.4746 383.89 99.6068 384.373 99.8711 384.811C100.145 385.248 100.527 385.599 101.02 385.864C101.521 386.119 102.113 386.246 102.797 386.246C103.708 386.246 104.51 386.078 105.203 385.74C105.905 385.403 106.484 384.961 106.939 384.414C107.395 383.867 107.701 383.27 107.855 382.623L108.566 383.567C108.448 384.022 108.229 384.492 107.91 384.975C107.6 385.449 107.195 385.895 106.693 386.315C106.192 386.725 105.6 387.062 104.916 387.326C104.242 387.582 103.476 387.709 102.619 387.709C101.653 387.709 100.81 387.527 100.09 387.162C99.3789 386.798 98.8229 386.301 98.4219 385.672C98.0299 385.034 97.834 384.314 97.834 383.512C97.834 382.783 97.9889 382.131 98.2988 381.557C98.6087 380.974 99.0553 380.481 99.6387 380.08C100.231 379.67 100.942 379.36 101.771 379.151C102.61 378.932 103.549 378.823 104.588 378.823H107.992ZM122.484 383.662C122.484 383.261 122.384 382.865 122.184 382.473C121.983 382.081 121.596 381.721 121.021 381.393C120.456 381.065 119.622 380.787 118.52 380.559C117.699 380.377 116.965 380.171 116.318 379.944C115.68 379.716 115.143 379.442 114.705 379.123C114.268 378.804 113.935 378.421 113.707 377.975C113.479 377.528 113.365 377 113.365 376.389C113.365 375.842 113.484 375.327 113.721 374.844C113.967 374.352 114.313 373.923 114.76 373.559C115.215 373.185 115.762 372.893 116.4 372.684C117.048 372.474 117.772 372.369 118.574 372.369C119.714 372.369 120.689 372.565 121.5 372.957C122.32 373.34 122.945 373.864 123.373 374.53C123.811 375.195 124.029 375.947 124.029 376.785H122.402C122.402 376.275 122.252 375.792 121.951 375.336C121.66 374.88 121.227 374.507 120.652 374.215C120.087 373.923 119.395 373.778 118.574 373.778C117.727 373.778 117.038 373.905 116.51 374.16C115.981 374.416 115.594 374.739 115.348 375.131C115.111 375.523 114.992 375.929 114.992 376.348C114.992 376.676 115.042 376.977 115.143 377.25C115.252 377.515 115.443 377.761 115.717 377.989C115.999 378.216 116.4 378.431 116.92 378.631C117.439 378.832 118.114 379.028 118.943 379.219C120.137 379.483 121.113 379.807 121.869 380.19C122.635 380.563 123.2 381.028 123.564 381.584C123.929 382.131 124.111 382.796 124.111 383.58C124.111 384.191 123.984 384.752 123.729 385.262C123.473 385.763 123.104 386.196 122.621 386.561C122.147 386.925 121.573 387.208 120.898 387.408C120.233 387.609 119.486 387.709 118.656 387.709C117.408 387.709 116.35 387.504 115.484 387.094C114.628 386.675 113.976 386.128 113.529 385.453C113.092 384.77 112.873 384.045 112.873 383.28H114.5C114.555 384.045 114.796 384.651 115.225 385.098C115.653 385.535 116.177 385.845 116.797 386.028C117.426 386.21 118.046 386.301 118.656 386.301C119.495 386.301 120.197 386.178 120.762 385.932C121.327 385.686 121.755 385.362 122.047 384.961C122.339 384.56 122.484 384.127 122.484 383.662ZM136.676 383.662C136.676 383.261 136.576 382.865 136.375 382.473C136.174 382.081 135.787 381.721 135.213 381.393C134.648 381.065 133.814 380.787 132.711 380.559C131.891 380.377 131.157 380.171 130.51 379.944C129.872 379.716 129.334 379.442 128.896 379.123C128.459 378.804 128.126 378.421 127.898 377.975C127.671 377.528 127.557 377 127.557 376.389C127.557 375.842 127.675 375.327 127.912 374.844C128.158 374.352 128.505 373.923 128.951 373.559C129.407 373.185 129.954 372.893 130.592 372.684C131.239 372.474 131.964 372.369 132.766 372.369C133.905 372.369 134.88 372.565 135.691 372.957C136.512 373.34 137.136 373.864 137.564 374.53C138.002 375.195 138.221 375.947 138.221 376.785H136.594C136.594 376.275 136.443 375.792 136.143 375.336C135.851 374.88 135.418 374.507 134.844 374.215C134.279 373.923 133.586 373.778 132.766 373.778C131.918 373.778 131.23 373.905 130.701 374.16C130.173 374.416 129.785 374.739 129.539 375.131C129.302 375.523 129.184 375.929 129.184 376.348C129.184 376.676 129.234 376.977 129.334 377.25C129.443 377.515 129.635 377.761 129.908 377.989C130.191 378.216 130.592 378.431 131.111 378.631C131.631 378.832 132.305 379.028 133.135 379.219C134.329 379.483 135.304 379.807 136.061 380.19C136.826 380.563 137.391 381.028 137.756 381.584C138.12 382.131 138.303 382.796 138.303 383.58C138.303 384.191 138.175 384.752 137.92 385.262C137.665 385.763 137.296 386.196 136.812 386.561C136.339 386.925 135.764 387.208 135.09 387.408C134.424 387.609 133.677 387.709 132.848 387.709C131.599 387.709 130.542 387.504 129.676 387.094C128.819 386.675 128.167 386.128 127.721 385.453C127.283 384.77 127.064 384.045 127.064 383.28H128.691C128.746 384.045 128.988 384.651 129.416 385.098C129.844 385.535 130.368 385.845 130.988 386.028C131.617 386.21 132.237 386.301 132.848 386.301C133.686 386.301 134.388 386.178 134.953 385.932C135.518 385.686 135.947 385.362 136.238 384.961C136.53 384.56 136.676 384.127 136.676 383.662ZM151.482 384.018V372.643H153.123V387.436H151.551L151.482 384.018ZM151.783 381.283L152.631 381.256C152.631 382.186 152.521 383.043 152.303 383.826C152.084 384.61 151.742 385.294 151.277 385.877C150.812 386.461 150.211 386.912 149.473 387.231C148.734 387.55 147.846 387.709 146.807 387.709C146.087 387.709 145.426 387.609 144.824 387.408C144.232 387.199 143.721 386.871 143.293 386.424C142.865 385.977 142.532 385.399 142.295 384.688C142.067 383.977 141.953 383.115 141.953 382.104V372.643H143.58V382.131C143.58 382.924 143.667 383.585 143.84 384.114C144.022 384.642 144.268 385.066 144.578 385.385C144.897 385.704 145.262 385.932 145.672 386.069C146.082 386.205 146.524 386.274 146.998 386.274C148.201 386.274 149.149 386.041 149.842 385.576C150.544 385.112 151.04 384.501 151.332 383.744C151.633 382.979 151.783 382.158 151.783 381.283ZM159.029 375.09V387.436H157.402V372.643H158.988L159.029 375.09ZM164.266 372.533L164.225 374.037C164.042 374.01 163.865 373.987 163.691 373.969C163.518 373.951 163.331 373.942 163.131 373.942C162.42 373.942 161.796 374.074 161.258 374.338C160.729 374.593 160.283 374.953 159.918 375.418C159.553 375.874 159.275 376.412 159.084 377.031C158.893 377.642 158.783 378.298 158.756 379L158.154 379.233C158.154 378.267 158.255 377.369 158.455 376.539C158.656 375.71 158.961 374.985 159.371 374.365C159.79 373.737 160.314 373.249 160.943 372.903C161.581 372.547 162.329 372.369 163.186 372.369C163.395 372.369 163.6 372.388 163.801 372.424C164.01 372.451 164.165 372.488 164.266 372.533ZM172.277 387.709C171.311 387.709 170.423 387.531 169.611 387.176C168.809 386.821 168.107 386.319 167.506 385.672C166.913 385.025 166.453 384.259 166.125 383.375C165.806 382.482 165.646 381.507 165.646 380.449V379.862C165.646 378.722 165.815 377.692 166.152 376.772C166.49 375.851 166.954 375.063 167.547 374.406C168.139 373.75 168.814 373.249 169.57 372.903C170.336 372.547 171.138 372.369 171.977 372.369C172.915 372.369 173.749 372.538 174.479 372.875C175.208 373.203 175.818 373.673 176.311 374.283C176.812 374.885 177.19 375.601 177.445 376.43C177.701 377.25 177.828 378.157 177.828 379.151V380.149H166.631V378.754H176.201V378.563C176.183 377.733 176.014 376.959 175.695 376.239C175.385 375.509 174.921 374.917 174.301 374.461C173.681 374.005 172.906 373.778 171.977 373.778C171.284 373.778 170.646 373.923 170.062 374.215C169.488 374.507 168.992 374.926 168.572 375.473C168.162 376.011 167.843 376.653 167.615 377.401C167.396 378.139 167.287 378.959 167.287 379.862V380.449C167.287 381.27 167.406 382.035 167.643 382.746C167.889 383.448 168.235 384.068 168.682 384.606C169.137 385.143 169.675 385.563 170.295 385.864C170.915 386.164 171.598 386.315 172.346 386.315C173.221 386.315 173.995 386.155 174.67 385.836C175.344 385.508 175.951 384.993 176.488 384.291L177.514 385.084C177.195 385.558 176.794 385.996 176.311 386.397C175.837 386.798 175.267 387.117 174.602 387.354C173.936 387.591 173.161 387.709 172.277 387.709ZM192.279 385.959L196.887 372.643H198.65L192.389 389.815C192.261 390.152 192.097 390.526 191.896 390.936C191.705 391.346 191.45 391.738 191.131 392.112C190.821 392.494 190.429 392.804 189.955 393.041C189.49 393.287 188.921 393.41 188.246 393.41C188.073 393.41 187.85 393.388 187.576 393.342C187.312 393.306 187.12 393.269 187.002 393.233L186.988 391.852C187.089 391.879 187.234 391.902 187.426 391.92C187.617 391.938 187.749 391.948 187.822 391.948C188.415 391.948 188.911 391.847 189.312 391.647C189.723 391.446 190.064 391.145 190.338 390.744C190.611 390.352 190.853 389.86 191.062 389.268L192.279 385.959ZM187.973 372.643L192.689 385.344L193.127 387.053L191.938 387.723L186.195 372.643H187.973ZM200.086 380.272V379.821C200.086 378.745 200.241 377.752 200.551 376.84C200.861 375.929 201.303 375.14 201.877 374.475C202.46 373.809 203.158 373.295 203.969 372.93C204.78 372.556 205.682 372.369 206.676 372.369C207.678 372.369 208.585 372.556 209.396 372.93C210.208 373.295 210.905 373.809 211.488 374.475C212.072 375.14 212.518 375.929 212.828 376.84C213.138 377.752 213.293 378.745 213.293 379.821V380.272C213.293 381.347 213.138 382.341 212.828 383.252C212.518 384.155 212.072 384.938 211.488 385.604C210.914 386.269 210.221 386.789 209.41 387.162C208.599 387.527 207.697 387.709 206.703 387.709C205.701 387.709 204.794 387.527 203.982 387.162C203.171 386.789 202.474 386.269 201.891 385.604C201.307 384.938 200.861 384.155 200.551 383.252C200.241 382.341 200.086 381.347 200.086 380.272ZM201.713 379.821V380.272C201.713 381.083 201.822 381.853 202.041 382.582C202.26 383.302 202.579 383.945 202.998 384.51C203.417 385.066 203.937 385.503 204.557 385.823C205.176 386.142 205.892 386.301 206.703 386.301C207.505 386.301 208.212 386.142 208.822 385.823C209.442 385.503 209.962 385.066 210.381 384.51C210.8 383.945 211.115 383.302 211.324 382.582C211.543 381.853 211.652 381.083 211.652 380.272V379.821C211.652 379.018 211.543 378.257 211.324 377.537C211.115 376.817 210.796 376.175 210.367 375.61C209.948 375.045 209.428 374.598 208.809 374.27C208.189 373.942 207.478 373.778 206.676 373.778C205.874 373.778 205.163 373.942 204.543 374.27C203.932 374.598 203.413 375.045 202.984 375.61C202.565 376.175 202.246 376.817 202.027 377.537C201.818 378.257 201.713 379.018 201.713 379.821ZM226.158 384.018V372.643H227.799V387.436H226.227L226.158 384.018ZM226.459 381.283L227.307 381.256C227.307 382.186 227.197 383.043 226.979 383.826C226.76 384.61 226.418 385.294 225.953 385.877C225.488 386.461 224.887 386.912 224.148 387.231C223.41 387.55 222.521 387.709 221.482 387.709C220.762 387.709 220.102 387.609 219.5 387.408C218.908 387.199 218.397 386.871 217.969 386.424C217.54 385.977 217.208 385.399 216.971 384.688C216.743 383.977 216.629 383.115 216.629 382.104V372.643H218.256V382.131C218.256 382.924 218.342 383.585 218.516 384.114C218.698 384.642 218.944 385.066 219.254 385.385C219.573 385.704 219.938 385.932 220.348 386.069C220.758 386.205 221.2 386.274 221.674 386.274C222.877 386.274 223.825 386.041 224.518 385.576C225.219 385.112 225.716 384.501 226.008 383.744C226.309 382.979 226.459 382.158 226.459 381.283ZM244.506 372.643V373.983H237.096V372.643H244.506ZM239.816 368.842H241.443V383.84C241.443 384.524 241.535 385.039 241.717 385.385C241.899 385.731 242.136 385.964 242.428 386.082C242.719 386.201 243.034 386.26 243.371 386.26C243.617 386.26 243.854 386.246 244.082 386.219C244.31 386.183 244.515 386.146 244.697 386.11L244.766 387.49C244.565 387.554 244.305 387.604 243.986 387.641C243.667 387.686 243.348 387.709 243.029 387.709C242.4 387.709 241.844 387.595 241.361 387.367C240.878 387.13 240.5 386.729 240.227 386.164C239.953 385.59 239.816 384.811 239.816 383.826V368.842ZM249.564 366.436V387.436H247.938V366.436H249.564ZM249.195 379.123L248.471 378.713C248.525 377.838 248.703 377.018 249.004 376.252C249.305 375.487 249.71 374.812 250.221 374.229C250.74 373.645 251.346 373.19 252.039 372.862C252.741 372.533 253.516 372.369 254.363 372.369C255.102 372.369 255.762 372.47 256.346 372.67C256.929 372.871 257.426 373.19 257.836 373.627C258.246 374.065 258.556 374.625 258.766 375.309C258.984 375.992 259.094 376.826 259.094 377.811V387.436H257.453V377.797C257.453 376.776 257.312 375.979 257.029 375.405C256.747 374.821 256.346 374.406 255.826 374.16C255.307 373.914 254.691 373.791 253.98 373.791C253.197 373.791 252.508 373.964 251.916 374.311C251.333 374.648 250.84 375.09 250.439 375.637C250.048 376.175 249.747 376.753 249.537 377.373C249.327 377.984 249.214 378.567 249.195 379.123ZM272.301 384.783V377.155C272.301 376.453 272.155 375.847 271.863 375.336C271.572 374.826 271.143 374.434 270.578 374.16C270.013 373.887 269.316 373.75 268.486 373.75C267.721 373.75 267.037 373.887 266.436 374.16C265.843 374.425 265.374 374.785 265.027 375.24C264.69 375.687 264.521 376.184 264.521 376.731L262.881 376.717C262.881 376.161 263.018 375.623 263.291 375.104C263.564 374.584 263.952 374.119 264.453 373.709C264.954 373.299 265.551 372.976 266.244 372.739C266.946 372.492 267.716 372.369 268.555 372.369C269.612 372.369 270.542 372.547 271.344 372.903C272.155 373.258 272.788 373.791 273.244 374.502C273.7 375.213 273.928 376.106 273.928 377.182V384.332C273.928 384.843 273.964 385.371 274.037 385.918C274.119 386.465 274.233 386.916 274.379 387.272V387.436H272.643C272.533 387.108 272.447 386.698 272.383 386.205C272.328 385.704 272.301 385.23 272.301 384.783ZM272.684 378.823L272.711 380.08H269.498C268.66 380.08 267.908 380.158 267.242 380.313C266.586 380.459 266.03 380.677 265.574 380.969C265.118 381.252 264.768 381.593 264.521 381.994C264.285 382.395 264.166 382.851 264.166 383.362C264.166 383.89 264.298 384.373 264.562 384.811C264.836 385.248 265.219 385.599 265.711 385.864C266.212 386.119 266.805 386.246 267.488 386.246C268.4 386.246 269.202 386.078 269.895 385.74C270.596 385.403 271.175 384.961 271.631 384.414C272.087 383.867 272.392 383.27 272.547 382.623L273.258 383.567C273.139 384.022 272.921 384.492 272.602 384.975C272.292 385.449 271.886 385.895 271.385 386.315C270.883 386.725 270.291 387.062 269.607 387.326C268.933 387.582 268.167 387.709 267.311 387.709C266.344 387.709 265.501 387.527 264.781 387.162C264.07 386.798 263.514 386.301 263.113 385.672C262.721 385.034 262.525 384.314 262.525 383.512C262.525 382.783 262.68 382.131 262.99 381.557C263.3 380.974 263.747 380.481 264.33 380.08C264.923 379.67 265.633 379.36 266.463 379.151C267.301 378.932 268.24 378.823 269.279 378.823H272.684ZM283.908 372.643V373.983H276.498V372.643H283.908ZM279.219 368.842H280.846V383.84C280.846 384.524 280.937 385.039 281.119 385.385C281.301 385.731 281.538 385.964 281.83 386.082C282.122 386.201 282.436 386.26 282.773 386.26C283.02 386.26 283.257 386.246 283.484 386.219C283.712 386.183 283.917 386.146 284.1 386.11L284.168 387.49C283.967 387.554 283.708 387.604 283.389 387.641C283.07 387.686 282.751 387.709 282.432 387.709C281.803 387.709 281.247 387.595 280.764 387.367C280.281 387.13 279.902 386.729 279.629 386.164C279.355 385.59 279.219 384.811 279.219 383.826V368.842ZM298.277 383.977L301.846 372.643H302.994L302.311 375.692L298.578 387.436H297.43L298.277 383.977ZM294.572 372.643L297.703 384.045L298.373 387.436H297.184L292.891 372.643H294.572ZM307.438 384.004L310.486 372.643H312.168L307.875 387.436H306.699L307.438 384.004ZM303.227 372.643L306.74 383.881L307.629 387.436H306.48L302.666 375.678L302.023 372.643H303.227ZM321.027 387.709C320.061 387.709 319.173 387.531 318.361 387.176C317.559 386.821 316.857 386.319 316.256 385.672C315.663 385.025 315.203 384.259 314.875 383.375C314.556 382.482 314.396 381.507 314.396 380.449V379.862C314.396 378.722 314.565 377.692 314.902 376.772C315.24 375.851 315.704 375.063 316.297 374.406C316.889 373.75 317.564 373.249 318.32 372.903C319.086 372.547 319.888 372.369 320.727 372.369C321.665 372.369 322.499 372.538 323.229 372.875C323.958 373.203 324.568 373.673 325.061 374.283C325.562 374.885 325.94 375.601 326.195 376.43C326.451 377.25 326.578 378.157 326.578 379.151V380.149H315.381V378.754H324.951V378.563C324.933 377.733 324.764 376.959 324.445 376.239C324.135 375.509 323.671 374.917 323.051 374.461C322.431 374.005 321.656 373.778 320.727 373.778C320.034 373.778 319.396 373.923 318.812 374.215C318.238 374.507 317.742 374.926 317.322 375.473C316.912 376.011 316.593 376.653 316.365 377.401C316.146 378.139 316.037 378.959 316.037 379.862V380.449C316.037 381.27 316.156 382.035 316.393 382.746C316.639 383.448 316.985 384.068 317.432 384.606C317.887 385.143 318.425 385.563 319.045 385.864C319.665 386.164 320.348 386.315 321.096 386.315C321.971 386.315 322.745 386.155 323.42 385.836C324.094 385.508 324.701 384.993 325.238 384.291L326.264 385.084C325.945 385.558 325.544 385.996 325.061 386.397C324.587 386.798 324.017 387.117 323.352 387.354C322.686 387.591 321.911 387.709 321.027 387.709ZM345.637 384.783V377.155C345.637 376.453 345.491 375.847 345.199 375.336C344.908 374.826 344.479 374.434 343.914 374.16C343.349 373.887 342.652 373.75 341.822 373.75C341.057 373.75 340.373 373.887 339.771 374.16C339.179 374.425 338.71 374.785 338.363 375.24C338.026 375.687 337.857 376.184 337.857 376.731L336.217 376.717C336.217 376.161 336.354 375.623 336.627 375.104C336.9 374.584 337.288 374.119 337.789 373.709C338.29 373.299 338.887 372.976 339.58 372.739C340.282 372.492 341.052 372.369 341.891 372.369C342.948 372.369 343.878 372.547 344.68 372.903C345.491 373.258 346.124 373.791 346.58 374.502C347.036 375.213 347.264 376.106 347.264 377.182V384.332C347.264 384.843 347.3 385.371 347.373 385.918C347.455 386.465 347.569 386.916 347.715 387.272V387.436H345.979C345.869 387.108 345.783 386.698 345.719 386.205C345.664 385.704 345.637 385.23 345.637 384.783ZM346.02 378.823L346.047 380.08H342.834C341.995 380.08 341.243 380.158 340.578 380.313C339.922 380.459 339.366 380.677 338.91 380.969C338.454 381.252 338.104 381.593 337.857 381.994C337.62 382.395 337.502 382.851 337.502 383.362C337.502 383.89 337.634 384.373 337.898 384.811C338.172 385.248 338.555 385.599 339.047 385.864C339.548 386.119 340.141 386.246 340.824 386.246C341.736 386.246 342.538 386.078 343.23 385.74C343.932 385.403 344.511 384.961 344.967 384.414C345.423 383.867 345.728 383.27 345.883 382.623L346.594 383.567C346.475 384.022 346.257 384.492 345.938 384.975C345.628 385.449 345.222 385.895 344.721 386.315C344.219 386.725 343.627 387.062 342.943 387.326C342.269 387.582 341.503 387.709 340.646 387.709C339.68 387.709 338.837 387.527 338.117 387.162C337.406 386.798 336.85 386.301 336.449 385.672C336.057 385.034 335.861 384.314 335.861 383.512C335.861 382.783 336.016 382.131 336.326 381.557C336.636 380.974 337.083 380.481 337.666 380.08C338.258 379.67 338.969 379.36 339.799 379.151C340.637 378.932 341.576 378.823 342.615 378.823H346.02ZM353.279 375.09V387.436H351.652V372.643H353.238L353.279 375.09ZM358.516 372.533L358.475 374.037C358.292 374.01 358.115 373.987 357.941 373.969C357.768 373.951 357.581 373.942 357.381 373.942C356.67 373.942 356.046 374.074 355.508 374.338C354.979 374.593 354.533 374.953 354.168 375.418C353.803 375.874 353.525 376.412 353.334 377.031C353.143 377.642 353.033 378.298 353.006 379L352.404 379.233C352.404 378.267 352.505 377.369 352.705 376.539C352.906 375.71 353.211 374.985 353.621 374.365C354.04 373.737 354.564 373.249 355.193 372.903C355.831 372.547 356.579 372.369 357.436 372.369C357.645 372.369 357.85 372.388 358.051 372.424C358.26 372.451 358.415 372.488 358.516 372.533ZM366.527 387.709C365.561 387.709 364.673 387.531 363.861 387.176C363.059 386.821 362.357 386.319 361.756 385.672C361.163 385.025 360.703 384.259 360.375 383.375C360.056 382.482 359.896 381.507 359.896 380.449V379.862C359.896 378.722 360.065 377.692 360.402 376.772C360.74 375.851 361.204 375.063 361.797 374.406C362.389 373.75 363.064 373.249 363.82 372.903C364.586 372.547 365.388 372.369 366.227 372.369C367.165 372.369 367.999 372.538 368.729 372.875C369.458 373.203 370.068 373.673 370.561 374.283C371.062 374.885 371.44 375.601 371.695 376.43C371.951 377.25 372.078 378.157 372.078 379.151V380.149H360.881V378.754H370.451V378.563C370.433 377.733 370.264 376.959 369.945 376.239C369.635 375.509 369.171 374.917 368.551 374.461C367.931 374.005 367.156 373.778 366.227 373.778C365.534 373.778 364.896 373.923 364.312 374.215C363.738 374.507 363.242 374.926 362.822 375.473C362.412 376.011 362.093 376.653 361.865 377.401C361.646 378.139 361.537 378.959 361.537 379.862V380.449C361.537 381.27 361.656 382.035 361.893 382.746C362.139 383.448 362.485 384.068 362.932 384.606C363.387 385.143 363.925 385.563 364.545 385.864C365.165 386.164 365.848 386.315 366.596 386.315C367.471 386.315 368.245 386.155 368.92 385.836C369.594 385.508 370.201 384.993 370.738 384.291L371.764 385.084C371.445 385.558 371.044 385.996 370.561 386.397C370.087 386.798 369.517 387.117 368.852 387.354C368.186 387.591 367.411 387.709 366.527 387.709ZM386.242 383.977L389.811 372.643H390.959L390.275 375.692L386.543 387.436H385.395L386.242 383.977ZM382.537 372.643L385.668 384.045L386.338 387.436H385.148L380.855 372.643H382.537ZM395.402 384.004L398.451 372.643H400.133L395.84 387.436H394.664L395.402 384.004ZM391.191 372.643L394.705 383.881L395.594 387.436H394.445L390.631 375.678L389.988 372.643H391.191ZM402.375 380.272V379.821C402.375 378.745 402.53 377.752 402.84 376.84C403.15 375.929 403.592 375.14 404.166 374.475C404.749 373.809 405.447 373.295 406.258 372.93C407.069 372.556 407.971 372.369 408.965 372.369C409.967 372.369 410.874 372.556 411.686 372.93C412.497 373.295 413.194 373.809 413.777 374.475C414.361 375.14 414.807 375.929 415.117 376.84C415.427 377.752 415.582 378.745 415.582 379.821V380.272C415.582 381.347 415.427 382.341 415.117 383.252C414.807 384.155 414.361 384.938 413.777 385.604C413.203 386.269 412.51 386.789 411.699 387.162C410.888 387.527 409.986 387.709 408.992 387.709C407.99 387.709 407.083 387.527 406.271 387.162C405.46 386.789 404.763 386.269 404.18 385.604C403.596 384.938 403.15 384.155 402.84 383.252C402.53 382.341 402.375 381.347 402.375 380.272ZM404.002 379.821V380.272C404.002 381.083 404.111 381.853 404.33 382.582C404.549 383.302 404.868 383.945 405.287 384.51C405.706 385.066 406.226 385.503 406.846 385.823C407.465 386.142 408.181 386.301 408.992 386.301C409.794 386.301 410.501 386.142 411.111 385.823C411.731 385.503 412.251 385.066 412.67 384.51C413.089 383.945 413.404 383.302 413.613 382.582C413.832 381.853 413.941 381.083 413.941 380.272V379.821C413.941 379.018 413.832 378.257 413.613 377.537C413.404 376.817 413.085 376.175 412.656 375.61C412.237 375.045 411.717 374.598 411.098 374.27C410.478 373.942 409.767 373.778 408.965 373.778C408.163 373.778 407.452 373.942 406.832 374.27C406.221 374.598 405.702 375.045 405.273 375.61C404.854 376.175 404.535 376.817 404.316 377.537C404.107 378.257 404.002 379.018 404.002 379.821ZM420.6 375.09V387.436H418.973V372.643H420.559L420.6 375.09ZM425.836 372.533L425.795 374.037C425.613 374.01 425.435 373.987 425.262 373.969C425.089 373.951 424.902 373.942 424.701 373.942C423.99 373.942 423.366 374.074 422.828 374.338C422.299 374.593 421.853 374.953 421.488 375.418C421.124 375.874 420.846 376.412 420.654 377.031C420.463 377.642 420.354 378.298 420.326 379L419.725 379.233C419.725 378.267 419.825 377.369 420.025 376.539C420.226 375.71 420.531 374.985 420.941 374.365C421.361 373.737 421.885 373.249 422.514 372.903C423.152 372.547 423.899 372.369 424.756 372.369C424.965 372.369 425.171 372.388 425.371 372.424C425.581 372.451 425.736 372.488 425.836 372.533ZM430.033 366.436V387.436H428.406V366.436H430.033ZM439.316 372.643L432.398 379.506L429.459 382.35L429.213 380.75L431.578 378.194L437.252 372.643H439.316ZM437.895 387.436L431.715 379.752L432.617 378.344L439.863 387.436H437.895ZM443.951 372.643V387.436H442.324V372.643H443.951ZM442.037 368.364C442.037 368.054 442.133 367.794 442.324 367.584C442.525 367.365 442.798 367.256 443.145 367.256C443.491 367.256 443.764 367.365 443.965 367.584C444.174 367.794 444.279 368.054 444.279 368.364C444.279 368.664 444.174 368.924 443.965 369.143C443.764 369.352 443.491 369.457 443.145 369.457C442.798 369.457 442.525 369.352 442.324 369.143C442.133 368.924 442.037 368.664 442.037 368.364ZM450.049 375.801V387.436H448.422V372.643H449.98L450.049 375.801ZM449.68 379.123L448.955 378.713C449.01 377.838 449.188 377.018 449.488 376.252C449.789 375.487 450.195 374.812 450.705 374.229C451.225 373.645 451.831 373.19 452.523 372.862C453.225 372.533 454 372.369 454.848 372.369C455.586 372.369 456.247 372.47 456.83 372.67C457.413 372.871 457.91 373.19 458.32 373.627C458.73 374.065 459.04 374.625 459.25 375.309C459.469 375.992 459.578 376.826 459.578 377.811V387.436H457.938V377.797C457.938 376.776 457.796 375.979 457.514 375.405C457.231 374.821 456.83 374.406 456.311 374.16C455.791 373.914 455.176 373.791 454.465 373.791C453.681 373.791 452.993 373.964 452.4 374.311C451.817 374.648 451.325 375.09 450.924 375.637C450.532 376.175 450.231 376.753 450.021 377.373C449.812 377.984 449.698 378.567 449.68 379.123ZM473.551 372.643H475.068V387.176C475.068 388.461 474.822 389.564 474.33 390.485C473.847 391.405 473.159 392.112 472.266 392.604C471.382 393.096 470.338 393.342 469.135 393.342C468.524 393.342 467.895 393.246 467.248 393.055C466.61 392.873 466.004 392.59 465.43 392.207C464.865 391.834 464.382 391.369 463.98 390.813L464.896 389.815C465.498 390.544 466.141 391.077 466.824 391.414C467.508 391.761 468.246 391.934 469.039 391.934C469.978 391.934 470.771 391.747 471.418 391.373C472.074 391 472.571 390.462 472.908 389.76C473.255 389.058 473.428 388.215 473.428 387.231V375.897L473.551 372.643ZM463.16 380.19V379.903C463.16 378.754 463.288 377.72 463.543 376.799C463.807 375.869 464.186 375.076 464.678 374.42C465.17 373.755 465.767 373.249 466.469 372.903C467.18 372.547 467.982 372.369 468.875 372.369C469.732 372.369 470.493 372.511 471.158 372.793C471.824 373.076 472.398 373.481 472.881 374.01C473.364 374.539 473.751 375.168 474.043 375.897C474.344 376.626 474.562 377.437 474.699 378.33V381.981C474.59 382.819 474.389 383.589 474.098 384.291C473.806 384.984 473.419 385.59 472.936 386.11C472.452 386.62 471.869 387.017 471.186 387.299C470.511 387.573 469.732 387.709 468.848 387.709C467.964 387.709 467.171 387.527 466.469 387.162C465.767 386.798 465.17 386.283 464.678 385.617C464.186 384.943 463.807 384.145 463.543 383.225C463.288 382.304 463.16 381.293 463.16 380.19ZM464.801 379.903V380.19C464.801 381.056 464.887 381.858 465.061 382.596C465.234 383.334 465.498 383.977 465.854 384.524C466.209 385.071 466.66 385.499 467.207 385.809C467.754 386.119 468.396 386.274 469.135 386.274C470.074 386.274 470.862 386.096 471.5 385.74C472.138 385.376 472.644 384.897 473.018 384.305C473.391 383.703 473.665 383.047 473.838 382.336V378.084C473.738 377.601 473.583 377.109 473.373 376.608C473.173 376.106 472.89 375.646 472.525 375.227C472.17 374.798 471.714 374.457 471.158 374.201C470.611 373.937 469.946 373.805 469.162 373.805C468.415 373.805 467.763 373.96 467.207 374.27C466.66 374.58 466.209 375.013 465.854 375.569C465.498 376.115 465.234 376.758 465.061 377.496C464.887 378.235 464.801 379.037 464.801 379.903ZM485.281 380.272V379.821C485.281 378.745 485.436 377.752 485.746 376.84C486.056 375.929 486.498 375.14 487.072 374.475C487.656 373.809 488.353 373.295 489.164 372.93C489.975 372.556 490.878 372.369 491.871 372.369C492.874 372.369 493.781 372.556 494.592 372.93C495.403 373.295 496.1 373.809 496.684 374.475C497.267 375.14 497.714 375.929 498.023 376.84C498.333 377.752 498.488 378.745 498.488 379.821V380.272C498.488 381.347 498.333 382.341 498.023 383.252C497.714 384.155 497.267 384.938 496.684 385.604C496.109 386.269 495.417 386.789 494.605 387.162C493.794 387.527 492.892 387.709 491.898 387.709C490.896 387.709 489.989 387.527 489.178 387.162C488.367 386.789 487.669 386.269 487.086 385.604C486.503 384.938 486.056 384.155 485.746 383.252C485.436 382.341 485.281 381.347 485.281 380.272ZM486.908 379.821V380.272C486.908 381.083 487.018 381.853 487.236 382.582C487.455 383.302 487.774 383.945 488.193 384.51C488.613 385.066 489.132 385.503 489.752 385.823C490.372 386.142 491.087 386.301 491.898 386.301C492.701 386.301 493.407 386.142 494.018 385.823C494.637 385.503 495.157 385.066 495.576 384.51C495.995 383.945 496.31 383.302 496.52 382.582C496.738 381.853 496.848 381.083 496.848 380.272V379.821C496.848 379.018 496.738 378.257 496.52 377.537C496.31 376.817 495.991 376.175 495.562 375.61C495.143 375.045 494.624 374.598 494.004 374.27C493.384 373.942 492.673 373.778 491.871 373.778C491.069 373.778 490.358 373.942 489.738 374.27C489.128 374.598 488.608 375.045 488.18 375.61C487.76 376.175 487.441 376.817 487.223 377.537C487.013 378.257 486.908 379.018 486.908 379.821ZM503.506 375.801V387.436H501.879V372.643H503.438L503.506 375.801ZM503.137 379.123L502.412 378.713C502.467 377.838 502.645 377.018 502.945 376.252C503.246 375.487 503.652 374.812 504.162 374.229C504.682 373.645 505.288 373.19 505.98 372.862C506.682 372.533 507.457 372.369 508.305 372.369C509.043 372.369 509.704 372.47 510.287 372.67C510.87 372.871 511.367 373.19 511.777 373.627C512.188 374.065 512.497 374.625 512.707 375.309C512.926 375.992 513.035 376.826 513.035 377.811V387.436H511.395V377.797C511.395 376.776 511.253 375.979 510.971 375.405C510.688 374.821 510.287 374.406 509.768 374.16C509.248 373.914 508.633 373.791 507.922 373.791C507.138 373.791 506.45 373.964 505.857 374.311C505.274 374.648 504.782 375.09 504.381 375.637C503.989 376.175 503.688 376.753 503.479 377.373C503.269 377.984 503.155 378.567 503.137 379.123ZM525.928 372.643V387.436H524.301V372.643H525.928ZM524.014 368.364C524.014 368.054 524.109 367.794 524.301 367.584C524.501 367.365 524.775 367.256 525.121 367.256C525.467 367.256 525.741 367.365 525.941 367.584C526.151 367.794 526.256 368.054 526.256 368.364C526.256 368.664 526.151 368.924 525.941 369.143C525.741 369.352 525.467 369.457 525.121 369.457C524.775 369.457 524.501 369.352 524.301 369.143C524.109 368.924 524.014 368.664 524.014 368.364ZM535.99 372.643V373.983H528.58V372.643H535.99ZM531.301 368.842H532.928V383.84C532.928 384.524 533.019 385.039 533.201 385.385C533.383 385.731 533.62 385.964 533.912 386.082C534.204 386.201 534.518 386.26 534.855 386.26C535.102 386.26 535.339 386.246 535.566 386.219C535.794 386.183 535.999 386.146 536.182 386.11L536.25 387.49C536.049 387.554 535.79 387.604 535.471 387.641C535.152 387.686 534.833 387.709 534.514 387.709C533.885 387.709 533.329 387.595 532.846 387.367C532.363 387.13 531.984 386.729 531.711 386.164C531.438 385.59 531.301 384.811 531.301 383.826V368.842ZM539.271 386.438C539.271 386.119 539.372 385.85 539.572 385.631C539.782 385.403 540.064 385.289 540.42 385.289C540.785 385.289 541.072 385.399 541.281 385.617C541.491 385.836 541.596 386.11 541.596 386.438C541.596 386.748 541.491 387.012 541.281 387.231C541.072 387.449 540.785 387.559 540.42 387.559C540.064 387.559 539.782 387.449 539.572 387.231C539.372 387.012 539.271 386.748 539.271 386.438ZM90.0684 429.328H84.3945V427.893H90.0684C91.2533 427.893 92.2148 427.701 92.9531 427.319C93.7005 426.927 94.2428 426.398 94.5801 425.733C94.9264 425.067 95.0996 424.32 95.0996 423.49C95.0996 422.679 94.9264 421.932 94.5801 421.248C94.2428 420.565 93.7005 420.018 92.9531 419.608C92.2148 419.188 91.2533 418.979 90.0684 418.979H84.9824V437.436H83.3008V417.53H90.0684C91.5267 417.53 92.7526 417.78 93.7461 418.281C94.7487 418.783 95.5052 419.48 96.0156 420.373C96.526 421.267 96.7812 422.296 96.7812 423.463C96.7812 424.684 96.526 425.737 96.0156 426.621C95.5052 427.496 94.7533 428.166 93.7598 428.631C92.7663 429.096 91.5358 429.328 90.0684 429.328ZM101.99 416.436V437.436H100.363V416.436H101.99ZM112.176 437.709C111.21 437.709 110.321 437.531 109.51 437.176C108.708 436.821 108.006 436.319 107.404 435.672C106.812 435.025 106.352 434.259 106.023 433.375C105.704 432.482 105.545 431.507 105.545 430.449V429.862C105.545 428.722 105.714 427.692 106.051 426.772C106.388 425.851 106.853 425.063 107.445 424.406C108.038 423.75 108.712 423.249 109.469 422.903C110.234 422.547 111.036 422.369 111.875 422.369C112.814 422.369 113.648 422.538 114.377 422.875C115.106 423.203 115.717 423.673 116.209 424.283C116.71 424.885 117.089 425.601 117.344 426.43C117.599 427.25 117.727 428.157 117.727 429.151V430.149H106.529V428.754H116.1V428.563C116.081 427.733 115.913 426.959 115.594 426.239C115.284 425.509 114.819 424.917 114.199 424.461C113.579 424.005 112.805 423.778 111.875 423.778C111.182 423.778 110.544 423.923 109.961 424.215C109.387 424.507 108.89 424.926 108.471 425.473C108.061 426.011 107.742 426.653 107.514 427.401C107.295 428.139 107.186 428.959 107.186 429.862V430.449C107.186 431.27 107.304 432.035 107.541 432.746C107.787 433.448 108.133 434.068 108.58 434.606C109.036 435.143 109.574 435.563 110.193 435.864C110.813 436.164 111.497 436.315 112.244 436.315C113.119 436.315 113.894 436.155 114.568 435.836C115.243 435.508 115.849 434.993 116.387 434.291L117.412 435.084C117.093 435.558 116.692 435.996 116.209 436.397C115.735 436.798 115.165 437.117 114.5 437.354C113.835 437.591 113.06 437.709 112.176 437.709ZM129.949 434.783V427.155C129.949 426.453 129.803 425.847 129.512 425.336C129.22 424.826 128.792 424.434 128.227 424.16C127.661 423.887 126.964 423.75 126.135 423.75C125.369 423.75 124.686 423.887 124.084 424.16C123.492 424.425 123.022 424.785 122.676 425.24C122.339 425.687 122.17 426.184 122.17 426.731L120.529 426.717C120.529 426.161 120.666 425.623 120.939 425.104C121.213 424.584 121.6 424.119 122.102 423.709C122.603 423.299 123.2 422.976 123.893 422.739C124.594 422.492 125.365 422.369 126.203 422.369C127.26 422.369 128.19 422.547 128.992 422.903C129.803 423.258 130.437 423.791 130.893 424.502C131.348 425.213 131.576 426.106 131.576 427.182V434.332C131.576 434.843 131.613 435.371 131.686 435.918C131.768 436.465 131.882 436.916 132.027 437.272V437.436H130.291C130.182 437.108 130.095 436.698 130.031 436.205C129.977 435.704 129.949 435.23 129.949 434.783ZM130.332 428.823L130.359 430.08H127.146C126.308 430.08 125.556 430.158 124.891 430.313C124.234 430.459 123.678 430.677 123.223 430.969C122.767 431.252 122.416 431.593 122.17 431.994C121.933 432.395 121.814 432.851 121.814 433.362C121.814 433.89 121.947 434.373 122.211 434.811C122.484 435.248 122.867 435.599 123.359 435.864C123.861 436.119 124.453 436.246 125.137 436.246C126.048 436.246 126.85 436.078 127.543 435.74C128.245 435.403 128.824 434.961 129.279 434.414C129.735 433.867 130.04 433.27 130.195 432.623L130.906 433.567C130.788 434.022 130.569 434.492 130.25 434.975C129.94 435.449 129.535 435.895 129.033 436.315C128.532 436.725 127.939 437.062 127.256 437.326C126.581 437.582 125.816 437.709 124.959 437.709C123.993 437.709 123.15 437.527 122.43 437.162C121.719 436.798 121.163 436.301 120.762 435.672C120.37 435.034 120.174 434.314 120.174 433.512C120.174 432.783 120.329 432.131 120.639 431.557C120.949 430.974 121.395 430.481 121.979 430.08C122.571 429.67 123.282 429.36 124.111 429.151C124.95 428.932 125.889 428.823 126.928 428.823H130.332ZM144.824 433.662C144.824 433.261 144.724 432.865 144.523 432.473C144.323 432.081 143.936 431.721 143.361 431.393C142.796 431.065 141.962 430.787 140.859 430.559C140.039 430.377 139.305 430.171 138.658 429.944C138.02 429.716 137.482 429.442 137.045 429.123C136.607 428.804 136.275 428.421 136.047 427.975C135.819 427.528 135.705 427 135.705 426.389C135.705 425.842 135.824 425.327 136.061 424.844C136.307 424.352 136.653 423.923 137.1 423.559C137.555 423.185 138.102 422.893 138.74 422.684C139.387 422.474 140.112 422.369 140.914 422.369C142.053 422.369 143.029 422.565 143.84 422.957C144.66 423.34 145.285 423.864 145.713 424.53C146.15 425.195 146.369 425.947 146.369 426.785H144.742C144.742 426.275 144.592 425.792 144.291 425.336C143.999 424.88 143.566 424.507 142.992 424.215C142.427 423.923 141.734 423.778 140.914 423.778C140.066 423.778 139.378 423.905 138.85 424.16C138.321 424.416 137.934 424.739 137.688 425.131C137.451 425.523 137.332 425.929 137.332 426.348C137.332 426.676 137.382 426.977 137.482 427.25C137.592 427.515 137.783 427.761 138.057 427.989C138.339 428.216 138.74 428.431 139.26 428.631C139.779 428.832 140.454 429.028 141.283 429.219C142.477 429.483 143.452 429.807 144.209 430.19C144.975 430.563 145.54 431.028 145.904 431.584C146.269 432.131 146.451 432.796 146.451 433.58C146.451 434.191 146.324 434.752 146.068 435.262C145.813 435.763 145.444 436.196 144.961 436.561C144.487 436.925 143.913 437.208 143.238 437.408C142.573 437.609 141.826 437.709 140.996 437.709C139.747 437.709 138.69 437.504 137.824 437.094C136.967 436.675 136.316 436.128 135.869 435.453C135.432 434.77 135.213 434.045 135.213 433.28H136.84C136.895 434.045 137.136 434.651 137.564 435.098C137.993 435.535 138.517 435.845 139.137 436.028C139.766 436.21 140.385 436.301 140.996 436.301C141.835 436.301 142.536 436.178 143.102 435.932C143.667 435.686 144.095 435.362 144.387 434.961C144.678 434.56 144.824 434.127 144.824 433.662ZM155.871 437.709C154.905 437.709 154.016 437.531 153.205 437.176C152.403 436.821 151.701 436.319 151.1 435.672C150.507 435.025 150.047 434.259 149.719 433.375C149.4 432.482 149.24 431.507 149.24 430.449V429.862C149.24 428.722 149.409 427.692 149.746 426.772C150.083 425.851 150.548 425.063 151.141 424.406C151.733 423.75 152.408 423.249 153.164 422.903C153.93 422.547 154.732 422.369 155.57 422.369C156.509 422.369 157.343 422.538 158.072 422.875C158.801 423.203 159.412 423.673 159.904 424.283C160.406 424.885 160.784 425.601 161.039 426.43C161.294 427.25 161.422 428.157 161.422 429.151V430.149H150.225V428.754H159.795V428.563C159.777 427.733 159.608 426.959 159.289 426.239C158.979 425.509 158.514 424.917 157.895 424.461C157.275 424.005 156.5 423.778 155.57 423.778C154.878 423.778 154.24 423.923 153.656 424.215C153.082 424.507 152.585 424.926 152.166 425.473C151.756 426.011 151.437 426.653 151.209 427.401C150.99 428.139 150.881 428.959 150.881 429.862V430.449C150.881 431.27 150.999 432.035 151.236 432.746C151.482 433.448 151.829 434.068 152.275 434.606C152.731 435.143 153.269 435.563 153.889 435.864C154.508 436.164 155.192 436.315 155.939 436.315C156.814 436.315 157.589 436.155 158.264 435.836C158.938 435.508 159.544 434.993 160.082 434.291L161.107 435.084C160.788 435.558 160.387 435.996 159.904 436.397C159.43 436.798 158.861 437.117 158.195 437.354C157.53 437.591 156.755 437.709 155.871 437.709ZM176.939 436.301C177.632 436.301 178.279 436.173 178.881 435.918C179.492 435.654 179.993 435.267 180.385 434.756C180.786 434.237 181.014 433.603 181.068 432.856H182.627C182.581 433.795 182.294 434.633 181.766 435.371C181.246 436.101 180.562 436.675 179.715 437.094C178.876 437.504 177.951 437.709 176.939 437.709C175.91 437.709 174.998 437.522 174.205 437.149C173.421 436.775 172.765 436.255 172.236 435.59C171.708 434.916 171.307 434.132 171.033 433.239C170.769 432.336 170.637 431.365 170.637 430.326V429.752C170.637 428.713 170.769 427.747 171.033 426.854C171.307 425.951 171.708 425.168 172.236 424.502C172.765 423.828 173.421 423.304 174.205 422.93C174.989 422.556 175.896 422.369 176.926 422.369C177.983 422.369 178.931 422.584 179.77 423.012C180.617 423.44 181.292 424.046 181.793 424.83C182.303 425.614 182.581 426.544 182.627 427.619H181.068C181.023 426.826 180.813 426.143 180.439 425.569C180.066 424.994 179.574 424.552 178.963 424.242C178.352 423.933 177.673 423.778 176.926 423.778C176.087 423.778 175.372 423.942 174.779 424.27C174.187 424.589 173.704 425.031 173.33 425.596C172.965 426.152 172.697 426.79 172.523 427.51C172.35 428.221 172.264 428.968 172.264 429.752V430.326C172.264 431.119 172.346 431.876 172.51 432.596C172.683 433.307 172.952 433.94 173.316 434.496C173.69 435.052 174.173 435.494 174.766 435.823C175.367 436.142 176.092 436.301 176.939 436.301ZM185.02 430.272V429.821C185.02 428.745 185.174 427.752 185.484 426.84C185.794 425.929 186.236 425.14 186.811 424.475C187.394 423.809 188.091 423.295 188.902 422.93C189.714 422.556 190.616 422.369 191.609 422.369C192.612 422.369 193.519 422.556 194.33 422.93C195.141 423.295 195.839 423.809 196.422 424.475C197.005 425.14 197.452 425.929 197.762 426.84C198.072 427.752 198.227 428.745 198.227 429.821V430.272C198.227 431.347 198.072 432.341 197.762 433.252C197.452 434.155 197.005 434.938 196.422 435.604C195.848 436.269 195.155 436.789 194.344 437.162C193.533 437.527 192.63 437.709 191.637 437.709C190.634 437.709 189.727 437.527 188.916 437.162C188.105 436.789 187.408 436.269 186.824 435.604C186.241 434.938 185.794 434.155 185.484 433.252C185.174 432.341 185.02 431.347 185.02 430.272ZM186.646 429.821V430.272C186.646 431.083 186.756 431.853 186.975 432.582C187.193 433.302 187.512 433.945 187.932 434.51C188.351 435.066 188.87 435.503 189.49 435.823C190.11 436.142 190.826 436.301 191.637 436.301C192.439 436.301 193.145 436.142 193.756 435.823C194.376 435.503 194.895 435.066 195.314 434.51C195.734 433.945 196.048 433.302 196.258 432.582C196.477 431.853 196.586 431.083 196.586 430.272V429.821C196.586 429.018 196.477 428.257 196.258 427.537C196.048 426.817 195.729 426.175 195.301 425.61C194.882 425.045 194.362 424.598 193.742 424.27C193.122 423.942 192.411 423.778 191.609 423.778C190.807 423.778 190.096 423.942 189.477 424.27C188.866 424.598 188.346 425.045 187.918 425.61C187.499 426.175 187.18 426.817 186.961 427.537C186.751 428.257 186.646 429.018 186.646 429.821ZM203.162 425.705V437.436H201.521V422.643H203.094L203.162 425.705ZM202.861 429.123L202.068 428.713C202.123 427.838 202.287 427.018 202.561 426.252C202.843 425.487 203.235 424.812 203.736 424.229C204.238 423.645 204.839 423.19 205.541 422.862C206.243 422.533 207.04 422.369 207.934 422.369C208.654 422.369 209.305 422.47 209.889 422.67C210.481 422.862 210.982 423.167 211.393 423.586C211.812 423.996 212.135 424.534 212.363 425.199C212.591 425.865 212.705 426.662 212.705 427.592V437.436H211.078V427.647C211.078 426.662 210.923 425.892 210.613 425.336C210.312 424.78 209.889 424.384 209.342 424.147C208.804 423.91 208.18 423.791 207.469 423.791C206.63 423.791 205.919 423.964 205.336 424.311C204.762 424.648 204.292 425.09 203.928 425.637C203.572 426.175 203.308 426.753 203.135 427.373C202.962 427.984 202.87 428.567 202.861 429.123ZM212.691 427.838L211.598 427.865C211.643 427.145 211.807 426.457 212.09 425.801C212.382 425.145 212.778 424.561 213.279 424.051C213.781 423.531 214.378 423.121 215.07 422.821C215.772 422.52 216.561 422.369 217.436 422.369C218.201 422.369 218.885 422.474 219.486 422.684C220.088 422.884 220.594 423.208 221.004 423.655C221.423 424.092 221.742 424.653 221.961 425.336C222.18 426.02 222.289 426.84 222.289 427.797V437.436H220.648V427.783C220.648 426.735 220.493 425.924 220.184 425.35C219.883 424.767 219.464 424.361 218.926 424.133C218.388 423.905 217.759 423.791 217.039 423.791C216.328 423.8 215.704 423.933 215.166 424.188C214.628 424.434 214.177 424.762 213.812 425.172C213.457 425.573 213.184 426.006 212.992 426.471C212.81 426.936 212.71 427.392 212.691 427.838ZM232.16 437.709C231.194 437.709 230.305 437.531 229.494 437.176C228.692 436.821 227.99 436.319 227.389 435.672C226.796 435.025 226.336 434.259 226.008 433.375C225.689 432.482 225.529 431.507 225.529 430.449V429.862C225.529 428.722 225.698 427.692 226.035 426.772C226.372 425.851 226.837 425.063 227.43 424.406C228.022 423.75 228.697 423.249 229.453 422.903C230.219 422.547 231.021 422.369 231.859 422.369C232.798 422.369 233.632 422.538 234.361 422.875C235.09 423.203 235.701 423.673 236.193 424.283C236.695 424.885 237.073 425.601 237.328 426.43C237.583 427.25 237.711 428.157 237.711 429.151V430.149H226.514V428.754H236.084V428.563C236.066 427.733 235.897 426.959 235.578 426.239C235.268 425.509 234.803 424.917 234.184 424.461C233.564 424.005 232.789 423.778 231.859 423.778C231.167 423.778 230.529 423.923 229.945 424.215C229.371 424.507 228.874 424.926 228.455 425.473C228.045 426.011 227.726 426.653 227.498 427.401C227.279 428.139 227.17 428.959 227.17 429.862V430.449C227.17 431.27 227.288 432.035 227.525 432.746C227.771 433.448 228.118 434.068 228.564 434.606C229.02 435.143 229.558 435.563 230.178 435.864C230.798 436.164 231.481 436.315 232.229 436.315C233.104 436.315 233.878 436.155 234.553 435.836C235.227 435.508 235.833 434.993 236.371 434.291L237.396 435.084C237.077 435.558 236.676 435.996 236.193 436.397C235.719 436.798 235.15 437.117 234.484 437.354C233.819 437.591 233.044 437.709 232.16 437.709ZM247.746 416.436H249.387V434.565L249.277 437.436H247.746V416.436ZM259.682 429.903V430.19C259.682 431.293 259.554 432.304 259.299 433.225C259.044 434.145 258.674 434.943 258.191 435.617C257.708 436.283 257.116 436.798 256.414 437.162C255.721 437.527 254.924 437.709 254.021 437.709C253.137 437.709 252.354 437.573 251.67 437.299C250.986 437.017 250.403 436.62 249.92 436.11C249.437 435.59 249.049 434.984 248.758 434.291C248.466 433.589 248.261 432.819 248.143 431.981V428.33C248.279 427.437 248.498 426.626 248.799 425.897C249.1 425.168 249.487 424.539 249.961 424.01C250.444 423.481 251.018 423.076 251.684 422.793C252.358 422.511 253.128 422.369 253.994 422.369C254.896 422.369 255.699 422.547 256.4 422.903C257.111 423.249 257.708 423.755 258.191 424.42C258.674 425.076 259.044 425.869 259.299 426.799C259.554 427.72 259.682 428.754 259.682 429.903ZM258.027 430.19V429.903C258.027 429.037 257.945 428.235 257.781 427.496C257.617 426.758 257.357 426.115 257.002 425.569C256.656 425.013 256.209 424.58 255.662 424.27C255.115 423.96 254.459 423.805 253.693 423.805C252.91 423.805 252.24 423.937 251.684 424.201C251.137 424.457 250.681 424.798 250.316 425.227C249.961 425.646 249.678 426.106 249.469 426.608C249.259 427.109 249.104 427.601 249.004 428.084V432.336C249.159 433.02 249.428 433.662 249.811 434.264C250.193 434.865 250.708 435.353 251.355 435.727C252.003 436.091 252.791 436.274 253.721 436.274C254.468 436.274 255.111 436.119 255.648 435.809C256.195 435.499 256.642 435.071 256.988 434.524C257.344 433.977 257.604 433.334 257.768 432.596C257.941 431.858 258.027 431.056 258.027 430.19ZM272.301 434.783V427.155C272.301 426.453 272.155 425.847 271.863 425.336C271.572 424.826 271.143 424.434 270.578 424.16C270.013 423.887 269.316 423.75 268.486 423.75C267.721 423.75 267.037 423.887 266.436 424.16C265.843 424.425 265.374 424.785 265.027 425.24C264.69 425.687 264.521 426.184 264.521 426.731L262.881 426.717C262.881 426.161 263.018 425.623 263.291 425.104C263.564 424.584 263.952 424.119 264.453 423.709C264.954 423.299 265.551 422.976 266.244 422.739C266.946 422.492 267.716 422.369 268.555 422.369C269.612 422.369 270.542 422.547 271.344 422.903C272.155 423.258 272.788 423.791 273.244 424.502C273.7 425.213 273.928 426.106 273.928 427.182V434.332C273.928 434.843 273.964 435.371 274.037 435.918C274.119 436.465 274.233 436.916 274.379 437.272V437.436H272.643C272.533 437.108 272.447 436.698 272.383 436.205C272.328 435.704 272.301 435.23 272.301 434.783ZM272.684 428.823L272.711 430.08H269.498C268.66 430.08 267.908 430.158 267.242 430.313C266.586 430.459 266.03 430.677 265.574 430.969C265.118 431.252 264.768 431.593 264.521 431.994C264.285 432.395 264.166 432.851 264.166 433.362C264.166 433.89 264.298 434.373 264.562 434.811C264.836 435.248 265.219 435.599 265.711 435.864C266.212 436.119 266.805 436.246 267.488 436.246C268.4 436.246 269.202 436.078 269.895 435.74C270.596 435.403 271.175 434.961 271.631 434.414C272.087 433.867 272.392 433.27 272.547 432.623L273.258 433.567C273.139 434.022 272.921 434.492 272.602 434.975C272.292 435.449 271.886 435.895 271.385 436.315C270.883 436.725 270.291 437.062 269.607 437.326C268.933 437.582 268.167 437.709 267.311 437.709C266.344 437.709 265.501 437.527 264.781 437.162C264.07 436.798 263.514 436.301 263.113 435.672C262.721 435.034 262.525 434.314 262.525 433.512C262.525 432.783 262.68 432.131 262.99 431.557C263.3 430.974 263.747 430.481 264.33 430.08C264.923 429.67 265.633 429.36 266.463 429.151C267.301 428.932 268.24 428.823 269.279 428.823H272.684ZM283.771 436.301C284.464 436.301 285.111 436.173 285.713 435.918C286.324 435.654 286.825 435.267 287.217 434.756C287.618 434.237 287.846 433.603 287.9 432.856H289.459C289.413 433.795 289.126 434.633 288.598 435.371C288.078 436.101 287.395 436.675 286.547 437.094C285.708 437.504 284.783 437.709 283.771 437.709C282.742 437.709 281.83 437.522 281.037 437.149C280.253 436.775 279.597 436.255 279.068 435.59C278.54 434.916 278.139 434.132 277.865 433.239C277.601 432.336 277.469 431.365 277.469 430.326V429.752C277.469 428.713 277.601 427.747 277.865 426.854C278.139 425.951 278.54 425.168 279.068 424.502C279.597 423.828 280.253 423.304 281.037 422.93C281.821 422.556 282.728 422.369 283.758 422.369C284.815 422.369 285.763 422.584 286.602 423.012C287.449 423.44 288.124 424.046 288.625 424.83C289.135 425.614 289.413 426.544 289.459 427.619H287.9C287.855 426.826 287.645 426.143 287.271 425.569C286.898 424.994 286.406 424.552 285.795 424.242C285.184 423.933 284.505 423.778 283.758 423.778C282.919 423.778 282.204 423.942 281.611 424.27C281.019 424.589 280.536 425.031 280.162 425.596C279.798 426.152 279.529 426.79 279.355 427.51C279.182 428.221 279.096 428.968 279.096 429.752V430.326C279.096 431.119 279.178 431.876 279.342 432.596C279.515 433.307 279.784 433.94 280.148 434.496C280.522 435.052 281.005 435.494 281.598 435.823C282.199 436.142 282.924 436.301 283.771 436.301ZM294.381 416.436V437.436H292.754V416.436H294.381ZM303.664 422.643L296.746 429.506L293.807 432.35L293.561 430.75L295.926 428.194L301.6 422.643H303.664ZM302.242 437.436L296.062 429.752L296.965 428.344L304.211 437.436H302.242ZM315.135 422.643V437.436H313.508V422.643H315.135ZM313.221 418.364C313.221 418.054 313.316 417.794 313.508 417.584C313.708 417.365 313.982 417.256 314.328 417.256C314.674 417.256 314.948 417.365 315.148 417.584C315.358 417.794 315.463 418.054 315.463 418.364C315.463 418.664 315.358 418.924 315.148 419.143C314.948 419.352 314.674 419.457 314.328 419.457C313.982 419.457 313.708 419.352 313.508 419.143C313.316 418.924 313.221 418.664 313.221 418.364ZM321.232 425.801V437.436H319.605V422.643H321.164L321.232 425.801ZM320.863 429.123L320.139 428.713C320.193 427.838 320.371 427.018 320.672 426.252C320.973 425.487 321.378 424.812 321.889 424.229C322.408 423.645 323.014 423.19 323.707 422.862C324.409 422.533 325.184 422.369 326.031 422.369C326.77 422.369 327.43 422.47 328.014 422.67C328.597 422.871 329.094 423.19 329.504 423.627C329.914 424.065 330.224 424.625 330.434 425.309C330.652 425.992 330.762 426.826 330.762 427.811V437.436H329.121V427.797C329.121 426.776 328.98 425.979 328.697 425.405C328.415 424.821 328.014 424.406 327.494 424.16C326.975 423.914 326.359 423.791 325.648 423.791C324.865 423.791 324.176 423.964 323.584 424.311C323.001 424.648 322.508 425.09 322.107 425.637C321.715 426.175 321.415 426.753 321.205 427.373C320.995 427.984 320.882 428.567 320.863 429.123ZM350.695 433.662C350.695 433.261 350.595 432.865 350.395 432.473C350.194 432.081 349.807 431.721 349.232 431.393C348.667 431.065 347.833 430.787 346.73 430.559C345.91 430.377 345.176 430.171 344.529 429.944C343.891 429.716 343.354 429.442 342.916 429.123C342.479 428.804 342.146 428.421 341.918 427.975C341.69 427.528 341.576 427 341.576 426.389C341.576 425.842 341.695 425.327 341.932 424.844C342.178 424.352 342.524 423.923 342.971 423.559C343.426 423.185 343.973 422.893 344.611 422.684C345.258 422.474 345.983 422.369 346.785 422.369C347.924 422.369 348.9 422.565 349.711 422.957C350.531 423.34 351.156 423.864 351.584 424.53C352.021 425.195 352.24 425.947 352.24 426.785H350.613C350.613 426.275 350.463 425.792 350.162 425.336C349.87 424.88 349.438 424.507 348.863 424.215C348.298 423.923 347.605 423.778 346.785 423.778C345.938 423.778 345.249 423.905 344.721 424.16C344.192 424.416 343.805 424.739 343.559 425.131C343.322 425.523 343.203 425.929 343.203 426.348C343.203 426.676 343.253 426.977 343.354 427.25C343.463 427.515 343.654 427.761 343.928 427.989C344.21 428.216 344.611 428.431 345.131 428.631C345.65 428.832 346.325 429.028 347.154 429.219C348.348 429.483 349.324 429.807 350.08 430.19C350.846 430.563 351.411 431.028 351.775 431.584C352.14 432.131 352.322 432.796 352.322 433.58C352.322 434.191 352.195 434.752 351.939 435.262C351.684 435.763 351.315 436.196 350.832 436.561C350.358 436.925 349.784 437.208 349.109 437.408C348.444 437.609 347.697 437.709 346.867 437.709C345.618 437.709 344.561 437.504 343.695 437.094C342.839 436.675 342.187 436.128 341.74 435.453C341.303 434.77 341.084 434.045 341.084 433.28H342.711C342.766 434.045 343.007 434.651 343.436 435.098C343.864 435.535 344.388 435.845 345.008 436.028C345.637 436.21 346.257 436.301 346.867 436.301C347.706 436.301 348.408 436.178 348.973 435.932C349.538 435.686 349.966 435.362 350.258 434.961C350.549 434.56 350.695 434.127 350.695 433.662ZM355.125 430.272V429.821C355.125 428.745 355.28 427.752 355.59 426.84C355.9 425.929 356.342 425.14 356.916 424.475C357.499 423.809 358.197 423.295 359.008 422.93C359.819 422.556 360.721 422.369 361.715 422.369C362.717 422.369 363.624 422.556 364.436 422.93C365.247 423.295 365.944 423.809 366.527 424.475C367.111 425.14 367.557 425.929 367.867 426.84C368.177 427.752 368.332 428.745 368.332 429.821V430.272C368.332 431.347 368.177 432.341 367.867 433.252C367.557 434.155 367.111 434.938 366.527 435.604C365.953 436.269 365.26 436.789 364.449 437.162C363.638 437.527 362.736 437.709 361.742 437.709C360.74 437.709 359.833 437.527 359.021 437.162C358.21 436.789 357.513 436.269 356.93 435.604C356.346 434.938 355.9 434.155 355.59 433.252C355.28 432.341 355.125 431.347 355.125 430.272ZM356.752 429.821V430.272C356.752 431.083 356.861 431.853 357.08 432.582C357.299 433.302 357.618 433.945 358.037 434.51C358.456 435.066 358.976 435.503 359.596 435.823C360.215 436.142 360.931 436.301 361.742 436.301C362.544 436.301 363.251 436.142 363.861 435.823C364.481 435.503 365.001 435.066 365.42 434.51C365.839 433.945 366.154 433.302 366.363 432.582C366.582 431.853 366.691 431.083 366.691 430.272V429.821C366.691 429.018 366.582 428.257 366.363 427.537C366.154 426.817 365.835 426.175 365.406 425.61C364.987 425.045 364.467 424.598 363.848 424.27C363.228 423.942 362.517 423.778 361.715 423.778C360.913 423.778 360.202 423.942 359.582 424.27C358.971 424.598 358.452 425.045 358.023 425.61C357.604 426.175 357.285 426.817 357.066 427.537C356.857 428.257 356.752 429.018 356.752 429.821ZM373.268 425.705V437.436H371.627V422.643H373.199L373.268 425.705ZM372.967 429.123L372.174 428.713C372.229 427.838 372.393 427.018 372.666 426.252C372.949 425.487 373.34 424.812 373.842 424.229C374.343 423.645 374.945 423.19 375.646 422.862C376.348 422.533 377.146 422.369 378.039 422.369C378.759 422.369 379.411 422.47 379.994 422.67C380.587 422.862 381.088 423.167 381.498 423.586C381.917 423.996 382.241 424.534 382.469 425.199C382.697 425.865 382.811 426.662 382.811 427.592V437.436H381.184V427.647C381.184 426.662 381.029 425.892 380.719 425.336C380.418 424.78 379.994 424.384 379.447 424.147C378.91 423.91 378.285 423.791 377.574 423.791C376.736 423.791 376.025 423.964 375.441 424.311C374.867 424.648 374.398 425.09 374.033 425.637C373.678 426.175 373.413 426.753 373.24 427.373C373.067 427.984 372.976 428.567 372.967 429.123ZM382.797 427.838L381.703 427.865C381.749 427.145 381.913 426.457 382.195 425.801C382.487 425.145 382.883 424.561 383.385 424.051C383.886 423.531 384.483 423.121 385.176 422.821C385.878 422.52 386.666 422.369 387.541 422.369C388.307 422.369 388.99 422.474 389.592 422.684C390.193 422.884 390.699 423.208 391.109 423.655C391.529 424.092 391.848 424.653 392.066 425.336C392.285 426.02 392.395 426.84 392.395 427.797V437.436H390.754V427.783C390.754 426.735 390.599 425.924 390.289 425.35C389.988 424.767 389.569 424.361 389.031 424.133C388.493 423.905 387.865 423.791 387.145 423.791C386.434 423.8 385.809 423.933 385.271 424.188C384.734 424.434 384.283 424.762 383.918 425.172C383.562 425.573 383.289 426.006 383.098 426.471C382.915 426.936 382.815 427.392 382.797 427.838ZM402.266 437.709C401.299 437.709 400.411 437.531 399.6 437.176C398.798 436.821 398.096 436.319 397.494 435.672C396.902 435.025 396.441 434.259 396.113 433.375C395.794 432.482 395.635 431.507 395.635 430.449V429.862C395.635 428.722 395.803 427.692 396.141 426.772C396.478 425.851 396.943 425.063 397.535 424.406C398.128 423.75 398.802 423.249 399.559 422.903C400.324 422.547 401.126 422.369 401.965 422.369C402.904 422.369 403.738 422.538 404.467 422.875C405.196 423.203 405.807 423.673 406.299 424.283C406.8 424.885 407.178 425.601 407.434 426.43C407.689 427.25 407.816 428.157 407.816 429.151V430.149H396.619V428.754H406.189V428.563C406.171 427.733 406.003 426.959 405.684 426.239C405.374 425.509 404.909 424.917 404.289 424.461C403.669 424.005 402.895 423.778 401.965 423.778C401.272 423.778 400.634 423.923 400.051 424.215C399.477 424.507 398.98 424.926 398.561 425.473C398.15 426.011 397.831 426.653 397.604 427.401C397.385 428.139 397.275 428.959 397.275 429.862V430.449C397.275 431.27 397.394 432.035 397.631 432.746C397.877 433.448 398.223 434.068 398.67 434.606C399.126 435.143 399.663 435.563 400.283 435.864C400.903 436.164 401.587 436.315 402.334 436.315C403.209 436.315 403.984 436.155 404.658 435.836C405.333 435.508 405.939 434.993 406.477 434.291L407.502 435.084C407.183 435.558 406.782 435.996 406.299 436.397C405.825 436.798 405.255 437.117 404.59 437.354C403.924 437.591 403.15 437.709 402.266 437.709ZM416.635 422.643V423.983H409.225V422.643H416.635ZM411.945 418.842H413.572V433.84C413.572 434.524 413.663 435.039 413.846 435.385C414.028 435.731 414.265 435.964 414.557 436.082C414.848 436.201 415.163 436.26 415.5 436.26C415.746 436.26 415.983 436.246 416.211 436.219C416.439 436.183 416.644 436.146 416.826 436.11L416.895 437.49C416.694 437.554 416.434 437.604 416.115 437.641C415.796 437.686 415.477 437.709 415.158 437.709C414.529 437.709 413.973 437.595 413.49 437.367C413.007 437.13 412.629 436.729 412.355 436.164C412.082 435.59 411.945 434.811 411.945 433.826V418.842ZM421.885 422.643V437.436H420.258V422.643H421.885ZM419.971 418.364C419.971 418.054 420.066 417.794 420.258 417.584C420.458 417.365 420.732 417.256 421.078 417.256C421.424 417.256 421.698 417.365 421.898 417.584C422.108 417.794 422.213 418.054 422.213 418.364C422.213 418.664 422.108 418.924 421.898 419.143C421.698 419.352 421.424 419.457 421.078 419.457C420.732 419.457 420.458 419.352 420.258 419.143C420.066 418.924 419.971 418.664 419.971 418.364ZM427.9 425.705V437.436H426.26V422.643H427.832L427.9 425.705ZM427.6 429.123L426.807 428.713C426.861 427.838 427.025 427.018 427.299 426.252C427.581 425.487 427.973 424.812 428.475 424.229C428.976 423.645 429.577 423.19 430.279 422.862C430.981 422.533 431.779 422.369 432.672 422.369C433.392 422.369 434.044 422.47 434.627 422.67C435.219 422.862 435.721 423.167 436.131 423.586C436.55 423.996 436.874 424.534 437.102 425.199C437.329 425.865 437.443 426.662 437.443 427.592V437.436H435.816V427.647C435.816 426.662 435.661 425.892 435.352 425.336C435.051 424.78 434.627 424.384 434.08 424.147C433.542 423.91 432.918 423.791 432.207 423.791C431.368 423.791 430.658 423.964 430.074 424.311C429.5 424.648 429.031 425.09 428.666 425.637C428.311 426.175 428.046 426.753 427.873 427.373C427.7 427.984 427.609 428.567 427.6 429.123ZM437.43 427.838L436.336 427.865C436.382 427.145 436.546 426.457 436.828 425.801C437.12 425.145 437.516 424.561 438.018 424.051C438.519 423.531 439.116 423.121 439.809 422.821C440.51 422.52 441.299 422.369 442.174 422.369C442.939 422.369 443.623 422.474 444.225 422.684C444.826 422.884 445.332 423.208 445.742 423.655C446.161 424.092 446.48 424.653 446.699 425.336C446.918 426.02 447.027 426.84 447.027 427.797V437.436H445.387V427.783C445.387 426.735 445.232 425.924 444.922 425.35C444.621 424.767 444.202 424.361 443.664 424.133C443.126 423.905 442.497 423.791 441.777 423.791C441.066 423.8 440.442 423.933 439.904 424.188C439.367 424.434 438.915 424.762 438.551 425.172C438.195 425.573 437.922 426.006 437.73 426.471C437.548 426.936 437.448 427.392 437.43 427.838ZM456.898 437.709C455.932 437.709 455.044 437.531 454.232 437.176C453.43 436.821 452.729 436.319 452.127 435.672C451.535 435.025 451.074 434.259 450.746 433.375C450.427 432.482 450.268 431.507 450.268 430.449V429.862C450.268 428.722 450.436 427.692 450.773 426.772C451.111 425.851 451.576 425.063 452.168 424.406C452.76 423.75 453.435 423.249 454.191 422.903C454.957 422.547 455.759 422.369 456.598 422.369C457.536 422.369 458.37 422.538 459.1 422.875C459.829 423.203 460.439 423.673 460.932 424.283C461.433 424.885 461.811 425.601 462.066 426.43C462.322 427.25 462.449 428.157 462.449 429.151V430.149H451.252V428.754H460.822V428.563C460.804 427.733 460.635 426.959 460.316 426.239C460.007 425.509 459.542 424.917 458.922 424.461C458.302 424.005 457.527 423.778 456.598 423.778C455.905 423.778 455.267 423.923 454.684 424.215C454.109 424.507 453.613 424.926 453.193 425.473C452.783 426.011 452.464 426.653 452.236 427.401C452.018 428.139 451.908 428.959 451.908 429.862V430.449C451.908 431.27 452.027 432.035 452.264 432.746C452.51 433.448 452.856 434.068 453.303 434.606C453.758 435.143 454.296 435.563 454.916 435.864C455.536 436.164 456.219 436.315 456.967 436.315C457.842 436.315 458.617 436.155 459.291 435.836C459.965 435.508 460.572 434.993 461.109 434.291L462.135 435.084C461.816 435.558 461.415 435.996 460.932 436.397C460.458 436.798 459.888 437.117 459.223 437.354C458.557 437.591 457.783 437.709 456.898 437.709ZM465.525 436.438C465.525 436.119 465.626 435.85 465.826 435.631C466.036 435.403 466.318 435.289 466.674 435.289C467.038 435.289 467.326 435.399 467.535 435.617C467.745 435.836 467.85 436.11 467.85 436.438C467.85 436.748 467.745 437.012 467.535 437.231C467.326 437.449 467.038 437.559 466.674 437.559C466.318 437.559 466.036 437.449 465.826 437.231C465.626 437.012 465.525 436.748 465.525 436.438Z" fill="#2A333E"/>
    </g>
    <defs>
    <filter id="filter0_d_2041_22864" x="219.081" y="51.7793" width="84.6655" height="104.661" filterUnits="userSpaceOnUse" color-interpolation-filters="sRGB">
    <feFlood flood-opacity="0" result="BackgroundImageFix"/>
    <feColorMatrix in="SourceAlpha" type="matrix" values="0 0 0 0 0 0 0 0 0 0 0 0 0 0 0 0 0 0 127 0" result="hardAlpha"/>
    <feOffset dy="1"/>
    <feGaussianBlur stdDeviation="1"/>
    <feColorMatrix type="matrix" values="0 0 0 0 0.754017 0 0 0 0 0.792284 0 0 0 0 0.836928 0 0 0 1 0"/>
    <feBlend mode="normal" in2="BackgroundImageFix" result="effect1_dropShadow_2041_22864"/>
    <feBlend mode="normal" in="SourceGraphic" in2="effect1_dropShadow_2041_22864" result="shape"/>
    </filter>
    <linearGradient id="paint0_linear_2041_22864" x1="-73.771" y1="-28.9952" x2="-73.771" y2="315.078" gradientUnits="userSpaceOnUse">
    <stop stop-color="white"/>
    <stop offset="0.4231" stop-color="#A1D2FD"/>
    <stop offset="1" stop-color="#1B91FB"/>
    </linearGradient>
    <clipPath id="clip0_2041_22864">
    <rect width="550" height="452.436" fill="white"/>
    </clipPath>
    </defs>
    </svg>
    