<?xml version="1.0" encoding="UTF-8"?>
<svg xmlns="http://www.w3.org/2000/svg" xmlns:xlink="http://www.w3.org/1999/xlink" width="24px" height="24px" viewBox="0 0 24 24" version="1.1">
<g id="surface1">
<path style=" stroke:none;fill-rule:nonzero;fill:rgb(0%,0%,0%);fill-opacity:1;" d="M 12 22 C 8.769531 22.078125 6.085938 19.527344 6 16.300781 L 6 6.128906 C 6.058594 3.796875 7.996094 1.949219 10.328125 2 C 12.667969 1.945312 14.609375 3.792969 14.671875 6.128906 L 14.671875 16.308594 C 14.582031 17.71875 13.417969 18.816406 12.003906 18.816406 C 10.59375 18.816406 9.425781 17.71875 9.339844 16.308594 L 9.339844 6.921875 C 9.339844 6.367188 9.789062 5.921875 10.339844 5.921875 C 10.890625 5.921875 11.339844 6.367188 11.339844 6.921875 L 11.339844 16.308594 C 11.382812 16.644531 11.667969 16.898438 12.003906 16.898438 C 12.34375 16.898438 12.628906 16.644531 12.671875 16.308594 L 12.671875 6.128906 C 12.605469 4.898438 11.5625 3.949219 10.328125 4 C 9.101562 3.953125 8.066406 4.902344 8 6.128906 L 8 16.300781 C 8.085938 18.425781 9.875 20.078125 12 20 C 14.125 20.078125 15.914062 18.425781 16 16.300781 L 16 6.128906 C 16 5.578125 16.449219 5.128906 17 5.128906 C 17.550781 5.128906 18 5.578125 18 6.128906 L 18 16.300781 C 17.914062 19.527344 15.230469 22.078125 12 22 Z M 12 22 "/>
</g>
</svg>
