<svg xmlns="http://www.w3.org/2000/svg" width="12" height="12" viewBox="0 0 99.396 99.3" fill="#ea4535">
    <defs>
        <style>
            .cls-2{fill:#fff}
        </style>
    </defs>
    <g id="Group_28" transform="translate(-637.85 -598.513)">
        <g id="Group_20" transform="translate(238.85 184.9)">
            <g id="Group_5" transform="translate(54 413.314)">
                <g id="Group_4">
                    <path id="Path_8"  d="M345.7 58.4a49.687 49.687 0 1 0 59.7-56.9 45.832 45.832 0 0 0-6.3-1 .952.952 0 0 1-.7-.2h-7.6a.6.6 0 0 1-.4.1c-1.4.3-2.8.4-4.2.6a49.659 49.659 0 0 0-40.1 38.3c-.4 2-.7 3.9-.9 5.9 0 .3.1.6-.2.8v7.8a.6.6 0 0 1 .1.4c.3 1.5.4 2.9.6 4.2z"/>
                    <path id="Path_9" d="M390.9 58.4a7.824 7.824 0 0 0 7.7-.1 4.133 4.133 0 0 0 2.3-3.9V27a4.288 4.288 0 0 0-2.2-3.8 7.914 7.914 0 0 0-6-.9c-2.9.6-4.3 2.3-4.3 5.3v26.6a4.315 4.315 0 0 0 2.5 4.2z" class="cls-2"/>
                </g>
                <path id="Path_10" d="M394.7 65.5a6.167 6.167 0 0 0-6.2 6.2 6.2 6.2 0 0 0 12.4 0 6.366 6.366 0 0 0-6.2-6.2z" class="cls-2"/>
            </g>
        </g>
    </g>
</svg>
