<?xml version="1.0" encoding="utf-8"?>
<!-- Generator: Adobe Illustrator 25.1.0, SVG Export Plug-In . SVG Version: 6.00 Build 0)  -->
<svg version="1.1" id="Layer_1" xmlns="http://www.w3.org/2000/svg" xmlns:xlink="http://www.w3.org/1999/xlink" x="0px" y="0px" width='25' height='20' viewBox="0 0 100 100" style="enable-background:new 0 0 100 100;" xml:space="preserve">
    <style type="text/css">
	.st0{fill:#525355;}
	.st1{fill:#D7353A;}
	.st2{fill:#FFFFFF;}
</style>
    <g>
        <path fill='#525355' d="M0,49.4c0.3-1.3,1.2-2.3,2-3.3c7.6-9,16.4-16.5,27.2-21.5c8.2-3.8,16.8-5.5,25.9-4.6c5,0.5,9.7,1.8,14.3,3.8
		c0.8,0.3,1.2,0.2,1.7-0.4c4-4,8-8,12-12c0.9-0.9,2-1.5,3.3-1.3c1.4,0.2,2.5,1,3,2.3c0.5,1.4,0.3,2.6-0.7,3.7
		c-0.2,0.2-0.4,0.4-0.5,0.6C64.3,40.7,40.5,64.5,16.6,88.4c-1,1-2,1.6-3.4,1.5c-1.4-0.2-2.5-1-3-2.3c-0.5-1.4-0.3-2.6,0.7-3.7
		c1-1.1,2-2.1,3.1-3.1c2.6-2.6,5.3-5.3,7.9-7.9c0.5-0.5,0.5-0.7-0.1-1c-8-5.1-14.7-11.7-20.7-19c-0.5-0.6-0.8-1.4-1.1-2.1
		C0,50.2,0,49.8,0,49.4z M64.8,29.9c-3.2-1.2-6.3-2-9.6-2.4c-8.3-1-16.1,0.6-23.6,4.2c-8.9,4.3-16.3,10.5-22.8,17.8
		c-0.4,0.4-0.3,0.6,0,1c5.3,6.1,11.2,11.6,18.2,15.9c0.6,0.4,0.9,0.4,1.5-0.1c2-2.1,4.1-4.2,6.3-6.3c0.5-0.5,0.6-0.8,0.2-1.5
		c-2-3.5-2.7-7.3-2.1-11.3c1.1-7.6,8.2-13.9,15.9-14.2c3.5-0.1,6.7,0.6,9.7,2.3c0.3,0.2,0.6,0.4,1,0C61.2,33.4,63,31.7,64.8,29.9z
		 M40.7,53.6c4.3-4.3,8.5-8.5,12.7-12.7c-2.9-1.6-7.5-0.8-10.4,2C40.1,45.6,39.1,50.3,40.7,53.6z" />
        <path fill='#525355' d="M49.5,80.2c-3.2,0-6.4-0.3-9.6-0.9c-2.2-0.5-3.5-2.3-3.1-4.3c0.4-2,2.3-3.3,4.5-2.9c10.7,2.2,20.6-0.1,30-5.4
		c7.4-4.2,13.8-9.7,19.4-16c0.5-0.5,0.3-0.8-0.1-1.3c-3.6-4.1-7.4-7.9-11.7-11.3c-1.9-1.5-2.1-3.9-0.7-5.5c1.3-1.5,3.4-1.6,5.1-0.4
		c2.8,2.2,5.4,4.5,7.9,7.1c2.6,2.6,5,5.3,7.3,8.1c1.3,1.6,1.4,3.4,0.1,5C90.6,62.5,80.9,70.7,68.9,76C62.7,78.7,56.2,80.1,49.5,80.2
		z" />
    </g>
</svg>