<svg width="15" height="15" viewBox="0 0 21 21" fill="none" xmlns="http://www.w3.org/2000/svg">
	<path d="M14.3006 14.9785C12.6199 16.2847 10.5049 16.9009 8.38605 16.7017C6.26723 16.5025 4.30398 15.5027 2.89603 13.9061C1.48809 12.3095 0.741327 10.236 0.807796 8.10782C0.874265 5.97966 1.74897 3.95686 3.2538 2.45129C4.75864 0.945719 6.78045 0.0705883 8.90757 0.00408701C11.0347 -0.0624143 13.1072 0.684714 14.703 2.09335C16.2989 3.50198 17.2981 5.46619 17.4973 7.58605C17.6964 9.7059 17.0805 11.822 15.7749 13.5035L20.6253 18.3381C21.036 18.7474 21.0366 19.4122 20.6267 19.8222C20.2169 20.2323 19.552 20.2319 19.1426 19.8215L14.311 14.9785H14.3006ZM9.17694 14.6438C10.0008 14.6438 10.8167 14.4814 11.5778 14.166C12.339 13.8505 13.0306 13.3882 13.6132 12.8053C14.1958 12.2224 14.6579 11.5305 14.9732 10.7689C15.2885 10.0074 15.4508 9.19116 15.4508 8.36686C15.4508 7.54257 15.2885 6.72634 14.9732 5.96479C14.6579 5.20324 14.1958 4.51128 13.6132 3.92842C13.0306 3.34555 12.339 2.8832 11.5778 2.56776C10.8167 2.25231 10.0008 2.08995 9.17694 2.08995C7.51302 2.08995 5.91724 2.75127 4.74067 3.92842C3.56409 5.10557 2.9031 6.70212 2.9031 8.36686C2.9031 10.0316 3.56409 11.6282 4.74067 12.8053C5.91724 13.9825 7.51302 14.6438 9.17694 14.6438Z" fill="#a3a5a9"/>
	</svg>
	