
<?xml version="1.0" encoding="utf-8"?>
<!-- Generator: Adobe Illustrator 25.1.0, SVG Export Plug-In . SVG Version: 6.00 Build 0)  -->
<svg width="25" height="20"  version="1.1" id="Layer_1" xmlns="http://www.w3.org/2000/svg" xmlns:xlink="http://www.w3.org/1999/xlink" x="0px" y="0px"
	 viewBox="0 0 100 100" style="enable-background:new 0 0 100 100;" xml:space="preserve">
<style type="text/css">
	.st0{fill:#525355;}
	.st1{fill:#D7353A;}
	.st2{fill:#FFFFFF;}
</style>
<g fill='#525355'>
	<path fill='#525355' d="M100,50.5c-0.3,0.8-0.8,1.6-1.4,2.3c-7.1,8.3-15.2,15.5-25.1,20.8C67,77.2,60.1,79.5,52.6,80c-6.1,0.4-12.1-0.6-17.8-2.6
		c-8.6-3.1-16.1-8-22.8-13.8c-4-3.4-7.6-7.1-10.9-11.2c-1.4-1.7-1.4-3,0-4.7c7.1-8.5,15.4-15.8,25.3-21.2c7.8-4.3,16.2-6.8,25.4-6.5
		c6.3,0.3,12.2,1.9,17.9,4.5C81.4,29.9,90.9,38.1,99,47.7c0.4,0.5,0.7,1.1,1,1.7C100,49.8,100,50.2,100,50.5z M50,73.9
		c6.4,0,12.4-1.8,18-4.5c9.5-4.6,17.2-11.3,24-18.8c0.4-0.4,0.3-0.7-0.1-1.1c-1.6-1.8-3.4-3.6-5.2-5.3c-6.4-6.1-13.5-11.4-22-14.9
		c-4.2-1.7-8.6-2.9-13.3-3.1c-7.1-0.3-13.6,1.5-19.8,4.6c-9.3,4.6-17,11.2-23.8,18.7c-0.4,0.4-0.4,0.7,0,1.1
		c6.8,7.5,14.5,14.1,23.9,18.7C37.5,72.1,43.5,73.9,50,73.9z"/>
	<path d="M69.8,50c0,10.3-8.9,18.7-19.8,18.7C39,68.6,30.2,60.3,30.2,50c0-10.3,8.9-18.7,19.8-18.7C61,31.4,69.8,39.7,69.8,50z
		 M63.2,50c0-6.9-5.9-12.4-13.2-12.4c-7.2,0-13.1,5.6-13.2,12.4c0,6.9,6,12.5,13.2,12.5C57.3,62.4,63.2,56.8,63.2,50z"/>
</g>
</svg>
