<svg version="1.1" id="Layer_1" xmlns="http://www.w3.org/2000/svg" xmlns:xlink="http://www.w3.org/1999/xlink" x="0px" y="0px"
	 width="100%" viewBox="0 0 288 288" enable-background="new 0 0 288 288" xml:space="preserve">
<path fill="#000000" opacity="1.000000" stroke="none" 
	d="
M161.531342,1.000000 
	C168.536438,4.197225 175.741302,5.902743 181.766525,10.272167 
	C196.463638,20.930334 205.147736,34.877560 206.445496,53.277630 
	C206.878967,59.423386 207.835098,65.498032 206.510406,71.632591 
	C206.216629,72.993027 206.391098,74.395241 207.828140,75.087082 
	C211.543198,76.875633 211.312897,79.733894 210.431824,83.107422 
	C208.038239,92.272179 204.180252,100.660072 200.024277,109.238564 
	C191.827881,126.157005 183.850449,143.619980 184.031326,163.231155 
	C184.037262,163.873993 183.832382,164.518768 183.715057,165.227295 
	C179.032867,162.204361 176.160278,162.669006 170.426331,167.266418 
	C164.876221,171.716431 163.875168,174.328629 165.848709,179.511978 
	C166.380295,180.908127 167.073425,182.248474 167.762802,183.577911 
	C171.967407,191.686325 173.868530,191.999771 180.061279,185.676590 
	C181.095154,184.620895 182.100616,183.429947 184.683517,183.880508 
	C181.391785,190.760941 176.579086,195.872269 169.717514,198.080856 
	C156.029434,202.486786 142.241730,203.305710 128.031311,196.831360 
	C131.876663,192.313354 134.359070,188.055969 135.961212,183.336914 
	C138.445877,176.018372 137.282990,172.417725 131.069580,167.919235 
	C128.103439,165.771744 125.264160,163.409714 122.130486,161.542480 
	C117.825806,158.977493 115.985313,155.118851 115.787941,150.439835 
	C115.563316,145.114990 113.711212,140.435364 111.219894,135.841553 
	C108.921623,131.603683 106.807167,127.253654 104.846115,122.848694 
	C102.631226,117.873566 100.236771,113.327827 96.414948,109.075150 
	C90.033958,101.974808 89.091141,92.186195 87.153015,83.100288 
	C86.837173,81.619644 87.651787,79.834442 89.171036,79.406662 
	C92.672646,78.420692 92.285149,76.455376 92.030045,73.392120 
	C90.509056,55.127895 91.941856,37.436131 103.966469,22.265602 
	C111.559166,12.686471 121.411179,6.508912 132.902054,2.722137 
	C133.822266,2.418883 134.687973,1.950215 135.789505,1.279207 
	C144.354233,1.000000 152.708466,1.000000 161.531342,1.000000 
M102.373154,65.150604 
	C102.296593,71.120010 102.218521,77.089394 102.144142,83.058823 
	C102.110184,85.784882 102.252441,88.391129 104.970177,90.065376 
	C109.695251,92.976212 111.914391,97.499535 113.014748,102.761475 
	C113.698883,106.032990 114.467819,109.440231 116.812141,111.897881 
	C122.183601,117.529007 124.030266,125.881325 131.082947,130.196167 
	C131.727249,130.590363 132.062775,131.523682 132.486008,132.239578 
	C137.382355,140.521667 137.936325,150.216431 141.622406,158.763351 
	C139.027542,160.875031 136.273026,160.289230 133.073502,160.725967 
	C134.563492,161.475525 135.410904,162.234222 136.311172,162.303207 
	C145.107422,162.977158 153.951202,163.563599 162.695816,162.230515 
	C166.032333,161.721893 169.894226,160.332718 170.730225,156.338165 
	C173.017029,145.411331 179.117661,135.720322 180.633438,124.540497 
	C182.255447,112.577225 187.960861,102.573982 196.361420,94.057915 
	C198.126556,92.268494 198.516647,90.181145 198.985748,87.822166 
	C200.873978,78.326530 197.470078,69.738068 194.611816,61.125832 
	C191.967255,53.157509 185.145660,48.555771 176.739120,48.308056 
	C172.745544,48.190376 168.712265,47.992920 164.813370,49.095856 
	C153.300919,52.352547 142.561356,50.996830 132.378693,44.461166 
	C129.645660,42.706993 126.219749,41.981995 123.054688,40.962120 
	C117.057953,39.029797 112.259338,41.128635 108.408180,45.753113 
	C103.941391,51.116814 102.148773,57.395634 102.373154,65.150604 
z"/>
<path fill="#000000" opacity="1.000000" stroke="none" 
	d="
M36.467941,289.000000 
	C32.871506,287.477936 29.689810,286.054871 26.627567,284.409515 
	C22.526171,282.205811 20.682304,279.068451 20.464140,274.005249 
	C20.132265,266.302887 22.708698,259.685638 25.554785,252.915558 
	C28.520620,245.860596 31.223724,238.694885 34.022369,231.569977 
	C40.237503,215.747269 52.506813,207.476898 69.101028,203.502838 
	C67.023903,207.725342 62.847450,209.023376 60.603554,212.309418 
	C57.901760,216.265991 54.622028,219.877670 51.281448,223.338394 
	C43.155266,231.756821 40.028782,242.417175 37.470970,253.337402 
	C36.216324,258.693939 34.785309,263.979492 32.995331,269.183899 
	C30.400505,276.728485 31.723917,279.685852 39.152687,282.844086 
	C43.881371,284.854431 48.718754,286.609100 53.753700,288.739197 
	C48.311958,289.000000 42.623920,289.000000 36.467941,289.000000 
z"/>
<path fill="#000000" opacity="1.000000" stroke="none" 
	d="
M250.464645,289.000000 
	C251.034332,287.581604 252.598907,287.014435 254.150620,286.445496 
	C263.272186,283.101196 272.431824,279.838531 280.446014,273.232300 
	C282.057953,277.375824 279.794006,279.503693 277.593262,281.648071 
	C273.915466,285.231689 268.827545,286.144989 264.261047,288.770325 
	C259.643097,289.000000 255.286194,289.000000 250.464645,289.000000 
z"/>
<path fill="#000000" opacity="1.000000" stroke="none" 
	d="
M78.279160,201.831009 
	C77.131119,201.821579 76.334045,201.770645 75.536964,201.719711 
	C79.855858,197.334671 85.168289,195.711700 90.911057,195.074326 
	C88.380692,200.319092 83.302292,200.672363 78.279160,201.831009 
z"/>
<path fill="#000000" opacity="1.000000" stroke="none" 
	d="
M109.458267,198.707367 
	C112.009544,198.158752 114.288658,197.250443 116.565521,199.398239 
	C114.377937,202.444885 111.562119,202.223328 108.772491,201.026733 
	C107.410408,200.442474 108.149818,199.438034 109.458267,198.707367 
z"/>
<path fill="#000000" opacity="1.000000" stroke="none" 
	d="
M85.319672,280.668579 
	C88.166420,281.571533 88.188988,283.470184 87.437386,286.522034 
	C84.944237,284.856873 83.383102,283.602020 85.319672,280.668579 
z"/>
</svg>